<?xml version="1.0" encoding="UTF-8"?>
<svg width="700pt" height="700pt" version="1.1" viewBox="0 0 700 550" xmlns="http://www.w3.org/2000/svg" xmlns:xlink="http://www.w3.org/1999/xlink">
 <defs>
  <symbol id="v" overflow="visible">
   <path d="m3.7656-0.21875c-0.19922 0.09375-0.40234 0.16797-0.60938 0.21875-0.21094 0.050781-0.42969 0.078125-0.65625 0.078125-0.6875 0-1.2305-0.1875-1.625-0.5625-0.39844-0.38281-0.59375-0.90625-0.59375-1.5625 0-0.64453 0.19531-1.1562 0.59375-1.5312 0.39453-0.38281 0.9375-0.57812 1.625-0.57812 0.22656 0 0.44531 0.027344 0.65625 0.078125 0.20703 0.042969 0.41016 0.11719 0.60938 0.21875v0.84375c-0.19922-0.13281-0.39844-0.23438-0.59375-0.29688-0.1875-0.0625-0.38672-0.09375-0.59375-0.09375-0.375 0-0.67188 0.125-0.89062 0.375-0.21094 0.24219-0.3125 0.57031-0.3125 0.98438 0 0.42969 0.10156 0.76172 0.3125 1 0.21875 0.24219 0.51562 0.35938 0.89062 0.35938 0.20703 0 0.40625-0.03125 0.59375-0.09375 0.19531-0.0625 0.39453-0.16016 0.59375-0.29688z"/>
  </symbol>
  <symbol id="d" overflow="visible">
   <path d="m2.75-2.2344c-0.085938-0.039063-0.17188-0.066406-0.26562-0.078125-0.085937-0.019531-0.16797-0.03125-0.25-0.03125-0.25 0-0.44531 0.085938-0.57812 0.25-0.13672 0.15625-0.20312 0.38672-0.20312 0.6875v1.4062h-0.98438v-3.0625h0.98438v0.5c0.125-0.19531 0.26562-0.34375 0.42188-0.4375 0.16406-0.09375 0.36328-0.14062 0.59375-0.14062h0.10938c0.039063 0 0.097656 0.007813 0.17188 0.015625z"/>
  </symbol>
  <symbol id="b" overflow="visible">
   <path d="m3.5312-1.5469v0.28125h-2.2969c0.03125 0.23047 0.11328 0.40234 0.25 0.51562 0.14453 0.11719 0.34766 0.17188 0.60938 0.17188 0.19531 0 0.40625-0.023437 0.625-0.078125 0.21875-0.0625 0.44141-0.15625 0.67188-0.28125v0.75c-0.23047 0.085938-0.46484 0.14844-0.70312 0.1875-0.23047 0.050781-0.46094 0.078125-0.6875 0.078125-0.5625 0-1-0.14062-1.3125-0.42188-0.30469-0.28125-0.45312-0.67578-0.45312-1.1875 0-0.5 0.14844-0.89062 0.45312-1.1719 0.30078-0.28906 0.71875-0.4375 1.25-0.4375 0.48828 0 0.875 0.14844 1.1562 0.4375 0.28906 0.29297 0.4375 0.67969 0.4375 1.1562zm-1-0.32812c0-0.17578-0.058594-0.32031-0.17188-0.4375-0.10547-0.11328-0.24609-0.17188-0.42188-0.17188-0.1875 0-0.34375 0.054687-0.46875 0.15625-0.11719 0.10547-0.1875 0.25781-0.21875 0.45312z"/>
  </symbol>
  <symbol id="l" overflow="visible">
   <path d="m1.8438-1.375c-0.19922 0-0.35156 0.039062-0.45312 0.10938-0.10547 0.0625-0.15625 0.16406-0.15625 0.29688 0 0.125 0.039063 0.22656 0.125 0.29688 0.082031 0.0625 0.19531 0.09375 0.34375 0.09375 0.1875 0 0.34375-0.0625 0.46875-0.1875 0.125-0.13281 0.1875-0.30078 0.1875-0.5v-0.10938zm1.5-0.375v1.75h-0.98438v-0.45312c-0.13672 0.1875-0.28906 0.32422-0.45312 0.40625-0.15625 0.082031-0.35547 0.125-0.59375 0.125-0.32422 0-0.58594-0.09375-0.78125-0.28125-0.19922-0.1875-0.29688-0.42578-0.29688-0.71875 0-0.35156 0.125-0.61328 0.375-0.78125 0.25-0.17578 0.64062-0.26562 1.1719-0.26562h0.57812v-0.078125c0-0.14453-0.0625-0.25391-0.1875-0.32812-0.125-0.070312-0.32031-0.10938-0.57812-0.10938-0.21094 0-0.40234 0.023437-0.57812 0.0625-0.17969 0.042969-0.34375 0.10547-0.5 0.1875v-0.75c0.20703-0.050781 0.41406-0.085937 0.625-0.10938 0.20703-0.03125 0.42188-0.046875 0.64062-0.046875 0.55078 0 0.94531 0.10938 1.1875 0.32812 0.25 0.21875 0.375 0.57422 0.375 1.0625z"/>
  </symbol>
  <symbol id="a" overflow="visible">
   <path d="m1.5469-3.9375v0.875h1v0.70312h-1v1.2969c0 0.13672 0.023437 0.23047 0.078125 0.28125 0.0625 0.054688 0.17578 0.078125 0.34375 0.078125h0.5v0.70312h-0.84375c-0.38672 0-0.66406-0.078125-0.82812-0.23438-0.15625-0.16406-0.23438-0.44141-0.23438-0.82812v-1.2969h-0.48438v-0.70312h0.48438v-0.875z"/>
  </symbol>
  <symbol id="f" overflow="visible">
   <path d="m2.5625-2.625v-1.6406h0.98438v4.2656h-0.98438v-0.4375c-0.13672 0.17969-0.28906 0.30859-0.45312 0.39062-0.15625 0.082031-0.34375 0.125-0.5625 0.125-0.375 0-0.6875-0.14844-0.9375-0.45312-0.24219-0.30078-0.35938-0.6875-0.35938-1.1562s0.11719-0.85156 0.35938-1.1562c0.25-0.30078 0.5625-0.45312 0.9375-0.45312 0.20703 0 0.39453 0.042969 0.5625 0.125 0.16406 0.085937 0.31641 0.21484 0.45312 0.39062zm-0.65625 2c0.21875 0 0.37891-0.078125 0.48438-0.23438 0.11328-0.15625 0.17188-0.37891 0.17188-0.67188 0-0.28906-0.058594-0.50781-0.17188-0.65625-0.10547-0.15625-0.26562-0.23438-0.48438-0.23438-0.21094 0-0.37109 0.078125-0.48438 0.23438-0.10547 0.14844-0.15625 0.36719-0.15625 0.65625 0 0.29297 0.050781 0.51562 0.15625 0.67188 0.11328 0.15625 0.27344 0.23438 0.48438 0.23438z"/>
  </symbol>
  <symbol id="k" overflow="visible">
   <path d="m2.1094-0.625c0.20703 0 0.36328-0.078125 0.46875-0.23438 0.11328-0.15625 0.17188-0.37891 0.17188-0.67188 0-0.28906-0.058594-0.50781-0.17188-0.65625-0.10547-0.15625-0.26172-0.23438-0.46875-0.23438-0.21875 0-0.38672 0.078125-0.5 0.23438-0.10547 0.14844-0.15625 0.36719-0.15625 0.65625 0 0.29297 0.050781 0.51562 0.15625 0.67188 0.11328 0.15625 0.28125 0.23438 0.5 0.23438zm-0.65625-2c0.13281-0.17578 0.28125-0.30469 0.4375-0.39062 0.16406-0.082031 0.35938-0.125 0.57812-0.125 0.375 0 0.67969 0.15234 0.92188 0.45312 0.25 0.30469 0.375 0.6875 0.375 1.1562s-0.125 0.85547-0.375 1.1562c-0.24219 0.30469-0.54688 0.45312-0.92188 0.45312-0.21875 0-0.41406-0.042969-0.57812-0.125-0.15625-0.082031-0.30469-0.21094-0.4375-0.39062v0.4375h-0.98438v-4.2656h0.98438z"/>
  </symbol>
  <symbol id="e" overflow="visible">
   <path d="m0.0625-3.0625h0.98438l0.82812 2.0781 0.70312-2.0781h0.98438l-1.2969 3.3594c-0.125 0.33203-0.27734 0.56641-0.45312 0.70312-0.17969 0.13281-0.40625 0.20312-0.6875 0.20312h-0.5625v-0.64062h0.3125c0.16406 0 0.28516-0.027344 0.35938-0.078125 0.070313-0.054687 0.12891-0.14844 0.17188-0.28125l0.03125-0.078125z"/>
  </symbol>
  <symbol id="j" overflow="visible">
   <path d="m3-0.75h-1.6562l-0.25 0.75h-1.0625l1.5156-4.0938h1.25l1.5156 4.0938h-1.0625zm-1.3906-0.75h1.125l-0.5625-1.625z"/>
  </symbol>
  <symbol id="i" overflow="visible">
   <path d="m3.3125-2.5625c0.125-0.1875 0.26953-0.32812 0.4375-0.42188 0.17578-0.10156 0.36328-0.15625 0.5625-0.15625 0.35156 0 0.625 0.10938 0.8125 0.32812s0.28125 0.53125 0.28125 0.9375v1.875h-0.98438v-1.5938-0.078125-0.10938c0-0.21875-0.03125-0.375-0.09375-0.46875-0.0625-0.10156-0.16797-0.15625-0.3125-0.15625-0.1875 0-0.33594 0.078125-0.4375 0.23438-0.09375 0.15625-0.14844 0.38281-0.15625 0.67188v1.5h-0.98438v-1.5938c0-0.34375-0.03125-0.5625-0.09375-0.65625-0.054688-0.10156-0.15234-0.15625-0.29688-0.15625-0.1875 0-0.33594 0.078125-0.4375 0.23438-0.10547 0.15625-0.15625 0.375-0.15625 0.65625v1.5156h-0.98438v-3.0625h0.98438v0.4375c0.11328-0.16406 0.25-0.28906 0.40625-0.375 0.15625-0.09375 0.33203-0.14062 0.53125-0.14062 0.20703 0 0.39062 0.054687 0.54688 0.15625 0.16406 0.10547 0.28906 0.24609 0.375 0.42188z"/>
  </symbol>
  <symbol id="h" overflow="visible">
   <path d="m3.5625-1.875v1.875h-1v-1.4219c0-0.26953-0.007812-0.45312-0.015625-0.54688-0.011719-0.10156-0.03125-0.17969-0.0625-0.23438-0.03125-0.0625-0.085937-0.10938-0.15625-0.14062-0.0625-0.039062-0.13672-0.0625-0.21875-0.0625-0.21094 0-0.37109 0.085938-0.48438 0.25-0.11719 0.15625-0.17188 0.37109-0.17188 0.64062v1.5156h-0.98438v-4.2656h0.98438v1.6406c0.14453-0.17578 0.30078-0.30469 0.46875-0.39062 0.16406-0.082031 0.34766-0.125 0.54688-0.125 0.35156 0 0.625 0.10938 0.8125 0.32812s0.28125 0.53125 0.28125 0.9375z"/>
  </symbol>
  <symbol id="u" overflow="visible">
   <path d="m2.875-2.9688v0.73438c-0.21875-0.082031-0.42969-0.14453-0.625-0.1875-0.1875-0.039063-0.37109-0.0625-0.54688-0.0625-0.1875 0-0.32812 0.027344-0.42188 0.078125-0.085938 0.042969-0.125 0.10938-0.125 0.20312 0 0.074219 0.03125 0.13281 0.09375 0.17188 0.070312 0.042969 0.19531 0.074219 0.375 0.09375l0.17188 0.03125c0.5 0.0625 0.83594 0.16797 1.0156 0.3125 0.17578 0.14844 0.26562 0.375 0.26562 0.6875 0 0.33594-0.125 0.58594-0.375 0.75-0.24219 0.15625-0.60156 0.23438-1.0781 0.23438-0.19922 0-0.40625-0.015625-0.625-0.046875s-0.4375-0.078125-0.65625-0.14062v-0.75c0.1875 0.09375 0.38281 0.16797 0.59375 0.21875 0.20703 0.042969 0.41406 0.0625 0.625 0.0625 0.1875 0 0.32812-0.023437 0.42188-0.078125 0.10156-0.050781 0.15625-0.12891 0.15625-0.23438 0-0.082031-0.039063-0.14453-0.10938-0.1875-0.0625-0.039063-0.19531-0.078125-0.39062-0.10938l-0.17188-0.015625c-0.4375-0.050781-0.74609-0.14844-0.92188-0.29688-0.16797-0.15625-0.25-0.38281-0.25-0.6875 0-0.32031 0.10938-0.5625 0.32812-0.71875s0.5625-0.23438 1.0312-0.23438c0.17578 0 0.36328 0.015625 0.5625 0.046875 0.19531 0.023438 0.41406 0.0625 0.65625 0.125z"/>
  </symbol>
  <symbol id="t" overflow="visible">
   <path d="m3.3594-3.9531v0.85938c-0.21875-0.10156-0.4375-0.17969-0.65625-0.23438-0.21094-0.050781-0.41406-0.078125-0.60938-0.078125-0.25 0-0.4375 0.039062-0.5625 0.10938-0.11719 0.074219-0.17188 0.18359-0.17188 0.32812 0 0.10547 0.039063 0.1875 0.125 0.25 0.082031 0.0625 0.22656 0.11719 0.4375 0.15625l0.45312 0.09375c0.44531 0.09375 0.76562 0.23438 0.95312 0.42188 0.19531 0.1875 0.29688 0.45312 0.29688 0.79688 0 0.44922-0.13672 0.78125-0.40625 1-0.26172 0.21875-0.66797 0.32812-1.2188 0.32812-0.26172 0-0.52344-0.027344-0.78125-0.078125-0.26172-0.039062-0.52344-0.11328-0.78125-0.21875v-0.89062c0.25781 0.14844 0.50781 0.25781 0.75 0.32812 0.25 0.0625 0.48828 0.09375 0.71875 0.09375 0.22656 0 0.39844-0.035156 0.51562-0.10938 0.125-0.082031 0.1875-0.19141 0.1875-0.32812 0-0.125-0.042969-0.22266-0.125-0.29688-0.085937-0.070313-0.25-0.13281-0.5-0.1875l-0.40625-0.09375c-0.40625-0.082031-0.70312-0.21875-0.89062-0.40625-0.1875-0.19531-0.28125-0.45703-0.28125-0.78125 0-0.40625 0.12891-0.71875 0.39062-0.9375 0.25781-0.21875 0.64062-0.32812 1.1406-0.32812 0.21875 0 0.44531 0.015625 0.6875 0.046875 0.23828 0.03125 0.48438 0.085937 0.73438 0.15625z"/>
  </symbol>
  <symbol id="g" overflow="visible">
   <path d="m0.4375-1.1875v-1.875h0.98438v0.29688 0.625 0.51562c0 0.24219 0.003906 0.41797 0.015625 0.53125 0.007812 0.10547 0.03125 0.18359 0.0625 0.23438 0.039062 0.0625 0.09375 0.11719 0.15625 0.15625 0.070312 0.03125 0.14844 0.046875 0.23438 0.046875 0.19531 0 0.35156-0.078125 0.46875-0.23438 0.125-0.16406 0.1875-0.38281 0.1875-0.65625v-1.5156h0.96875v3.0625h-0.96875v-0.4375c-0.15625 0.17969-0.32031 0.30859-0.48438 0.39062-0.15625 0.082031-0.33594 0.125-0.53125 0.125-0.35547 0-0.625-0.10938-0.8125-0.32812s-0.28125-0.53125-0.28125-0.9375z"/>
  </symbol>
  <symbol id="s" overflow="visible">
   <path d="m0.46875-3.0625h0.98438v3.0625h-0.98438zm0-1.2031h0.98438v0.79688h-0.98438z"/>
  </symbol>
  <symbol id="c" overflow="visible">
   <path d="m1.9375-2.4375c-0.21875 0-0.38672 0.078125-0.5 0.23438-0.11719 0.15625-0.17188 0.38281-0.17188 0.67188 0 0.29297 0.054687 0.51562 0.17188 0.67188 0.11328 0.15625 0.28125 0.23438 0.5 0.23438 0.20703 0 0.36719-0.078125 0.48438-0.23438 0.11328-0.15625 0.17188-0.37891 0.17188-0.67188 0-0.28906-0.058594-0.51562-0.17188-0.67188-0.11719-0.15625-0.27734-0.23438-0.48438-0.23438zm0-0.70312c0.51953 0 0.92578 0.14844 1.2188 0.4375 0.30078 0.28125 0.45312 0.67188 0.45312 1.1719s-0.15234 0.89844-0.45312 1.1875c-0.29297 0.28125-0.69922 0.42188-1.2188 0.42188-0.53125 0-0.94922-0.14062-1.25-0.42188-0.30469-0.28906-0.45312-0.6875-0.45312-1.1875s0.14844-0.89062 0.45312-1.1719c0.30078-0.28906 0.71875-0.4375 1.25-0.4375z"/>
  </symbol>
  <symbol id="r" overflow="visible">
   <path d="m2.4844-4.2656v0.64062h-0.53125c-0.14844 0-0.24609 0.027344-0.29688 0.078125-0.054688 0.054687-0.078125 0.14062-0.078125 0.26562v0.21875h0.82812v0.70312h-0.82812v2.3594h-0.98438v-2.3594h-0.48438v-0.70312h0.48438v-0.21875c0-0.33203 0.09375-0.57812 0.28125-0.73438 0.1875-0.16406 0.47266-0.25 0.85938-0.25z"/>
  </symbol>
  <symbol id="q" overflow="visible">
   <path d="m0.51562-4.0938h1.1719l1.5 2.8125v-2.8125h0.98438v4.0938h-1.1719l-1.4844-2.8125v2.8125h-1z"/>
  </symbol>
  <symbol id="p" overflow="visible">
   <path d="m3.5625-1.875v1.875h-1v-1.4375c0-0.25781-0.007812-0.4375-0.015625-0.53125-0.011719-0.10156-0.03125-0.17969-0.0625-0.23438-0.03125-0.0625-0.085937-0.10938-0.15625-0.14062-0.0625-0.039062-0.13672-0.0625-0.21875-0.0625-0.21094 0-0.37109 0.085938-0.48438 0.25-0.11719 0.15625-0.17188 0.37109-0.17188 0.64062v1.5156h-0.98438v-3.0625h0.98438v0.4375c0.14453-0.17578 0.30078-0.30469 0.46875-0.39062 0.16406-0.082031 0.34766-0.125 0.54688-0.125 0.35156 0 0.625 0.10938 0.8125 0.32812s0.28125 0.53125 0.28125 0.9375z"/>
  </symbol>
  <symbol id="o" overflow="visible">
   <path d="m0.51562-4.0938h1.75c0.51953 0 0.91406 0.12109 1.1875 0.35938 0.28125 0.23047 0.42188 0.55859 0.42188 0.98438 0 0.42969-0.14062 0.75781-0.42188 0.98438-0.27344 0.23047-0.66797 0.34375-1.1875 0.34375h-0.70312v1.4219h-1.0469zm1.0469 0.76562v1.1406h0.59375c0.19531 0 0.35156-0.046875 0.46875-0.14062 0.11328-0.10156 0.17188-0.24219 0.17188-0.42188 0-0.1875-0.058594-0.32812-0.17188-0.42188-0.11719-0.10156-0.27344-0.15625-0.46875-0.15625z"/>
  </symbol>
  <symbol id="n" overflow="visible">
   <path d="m0.46875-3.0625h0.98438v3c0 0.41406-0.10156 0.72656-0.29688 0.9375-0.19922 0.21875-0.48438 0.32812-0.85938 0.32812h-0.48438v-0.64062h0.17188c0.1875 0 0.3125-0.042969 0.375-0.125 0.070313-0.085938 0.10938-0.25 0.10938-0.5zm0-1.2031h0.98438v0.79688h-0.98438z"/>
  </symbol>
  <symbol id="m" overflow="visible">
   <path d="m2.9531-2.9688v0.79688c-0.13672-0.09375-0.27344-0.16016-0.40625-0.20312-0.13672-0.039062-0.27734-0.0625-0.42188-0.0625-0.27344 0-0.48438 0.078125-0.64062 0.23438-0.14844 0.15625-0.21875 0.38281-0.21875 0.67188 0 0.29297 0.070313 0.51562 0.21875 0.67188 0.15625 0.15625 0.36719 0.23438 0.64062 0.23438 0.15625 0 0.30078-0.019531 0.4375-0.0625 0.14453-0.050781 0.27344-0.11719 0.39062-0.20312v0.79688c-0.15625 0.0625-0.3125 0.10156-0.46875 0.125-0.15625 0.03125-0.32031 0.046875-0.48438 0.046875-0.55469 0-0.98438-0.14062-1.2969-0.42188s-0.46875-0.67578-0.46875-1.1875c0-0.50781 0.15625-0.90625 0.46875-1.1875s0.74219-0.42188 1.2969-0.42188c0.16406 0 0.32812 0.015625 0.48438 0.046875 0.15625 0.023438 0.3125 0.0625 0.46875 0.125z"/>
  </symbol>
 </defs>
 <g>
  <path d="m328.68 393.89h-20.254c-8.7578 0-15.883 7.125-15.883 15.883 0 8.7578 7.125 15.879 15.883 15.879h20.254c8.7578 0 15.883-7.125 15.883-15.879 0-8.7578-7.125-15.883-15.883-15.883zm0 22.789h-20.254c-3.8086 0-6.9102-3.1016-6.9102-6.9102s3.1016-6.9102 6.9102-6.9102h20.254c3.8086 0 6.9102 3.1016 6.9102 6.9102 0 3.8125-3.0977 6.9102-6.9102 6.9102z"/>
  <path d="m328.68 347.49h-20.254c-8.7578 0-15.883 7.125-15.883 15.883s7.125 15.879 15.883 15.879h20.254c8.7578 0 15.883-7.125 15.883-15.883 0-8.7539-7.125-15.879-15.883-15.879zm0 22.793h-20.254c-3.8086 0-6.9102-3.1016-6.9102-6.9102s3.1016-6.9102 6.9102-6.9102h20.254c3.8086 0 6.9102 3.1016 6.9102 6.9102s-3.0977 6.9102-6.9102 6.9102z"/>
  <path d="m196.43 393.89c-8.7578 0-15.883 7.125-15.883 15.883v20.254c0 8.7578 7.125 15.879 15.883 15.879 8.7578 0 15.883-7.125 15.883-15.879l-0.003906-20.254c0-8.7578-7.125-15.883-15.879-15.883zm6.9102 36.133c0 3.8086-3.1016 6.9102-6.9102 6.9102-3.8086 0-6.9102-3.1016-6.9102-6.9102l-0.003906-20.25c0-3.8086 3.1016-6.9102 6.9102-6.9102s6.9102 3.1016 6.9102 6.9102z"/>
  <path d="m264.93 377.39c0-8.7578-7.125-15.879-15.883-15.879h-20.254c-8.7578 0-15.883 7.125-15.883 15.879 0 8.7578 7.125 15.883 15.883 15.883h20.254c8.7578-0.003906 15.883-7.125 15.883-15.883zm-43.047 0c0-3.8086 3.1016-6.9102 6.9102-6.9102h20.254c3.8086 0 6.9102 3.1016 6.9102 6.9102 0 3.8086-3.1016 6.9102-6.9102 6.9102h-20.254c-3.8086 0-6.9102-3.1016-6.9102-6.9102z"/>
  <path d="m196.43 308.89c-8.7578 0-15.883 7.125-15.883 15.883v20.254c0 8.7578 7.125 15.883 15.883 15.883 8.7578 0 15.883-7.125 15.883-15.883v-20.254c-0.003906-8.7578-7.1289-15.883-15.883-15.883zm6.9102 36.137c0 3.8086-3.1016 6.9102-6.9102 6.9102-3.8086 0-6.9102-3.1016-6.9102-6.9102v-20.254c0-3.8086 3.1016-6.9102 6.9102-6.9102 3.8086 0 6.9102 3.1016 6.9102 6.9102z"/>
  <path d="m164.05 361.51h-20.254c-8.7578 0-15.883 7.125-15.883 15.879 0 8.7578 7.125 15.883 15.883 15.883h20.254c8.7578 0 15.883-7.125 15.883-15.883 0-8.7539-7.125-15.879-15.883-15.879zm0 22.793h-20.254c-3.8086 0-6.9102-3.1016-6.9102-6.9102 0-3.8086 3.1016-6.9102 6.9102-6.9102h20.254c3.8086 0 6.9102 3.1016 6.9102 6.9102 0 3.8086-3.0977 6.9102-6.9102 6.9102z"/>
  <path d="m370.23 419.09c-13.871 0-25.156 11.285-25.156 25.156 0 13.875 11.285 25.156 25.156 25.156s25.156-11.285 25.156-25.156-11.285-25.156-25.156-25.156zm0 41.344c-8.9258 0-16.188-7.2617-16.188-16.188 0-8.9258 7.2617-16.188 16.188-16.188s16.188 7.2617 16.188 16.188c-0.003906 8.9258-7.2617 16.188-16.188 16.188z"/>
  <path d="m266.88 419.09c-13.871 0-25.156 11.285-25.156 25.156 0 13.875 11.285 25.156 25.156 25.156s25.156-11.285 25.156-25.156-11.285-25.156-25.156-25.156zm0 41.344c-8.9258 0-16.188-7.2617-16.188-16.188 0-8.9258 7.2617-16.188 16.188-16.188s16.188 7.2617 16.188 16.188c-0.003906 8.9258-7.2656 16.188-16.188 16.188z"/>
  <path d="m440.68 342.66c-19.152 0-34.734 15.582-34.734 34.734 0 19.152 15.582 34.734 34.734 34.734s34.734-15.582 34.734-34.734c0-19.152-15.582-34.734-34.734-34.734zm0 60.496c-14.207 0-25.766-11.559-25.766-25.766s11.559-25.766 25.766-25.766c14.207 0 25.766 11.559 25.766 25.766-0.003907 14.211-11.562 25.766-25.766 25.766z"/>
  <path d="m440.68 320.48c-31.383 0-56.918 25.531-56.918 56.914 0 31.383 25.531 56.918 56.918 56.918 31.383 0 56.914-25.531 56.914-56.918 0-31.383-25.531-56.914-56.914-56.914zm0 104.86c-26.438 0-47.945-21.508-47.945-47.945s21.508-47.945 47.945-47.945 47.945 21.508 47.945 47.945-21.508 47.945-47.945 47.945z"/>
  <path d="m632.39 309.49-91.207-306.28c-0.34766-1.1719-1.1602-2.1523-2.25-2.7109-1.0859-0.55859-2.3594-0.65234-3.5117-0.25l-177.56 61.227c-2.2734 0.78125-3.5234 3.2188-2.8359 5.5195l2.2031 7.3945c-26.312 5.2031-51.102 15.082-73.785 29.418-53.281-33.672-117.46-42.262-190.82-25.523-2.0391 0.46484-3.4883 2.2812-3.4883 4.3711v319.45c-8.4727 29.188-16 69.434-21.016 99.469-2.168 12.984 0.76953 26.09 8.2773 36.898 7.5117 10.812 18.766 18.133 31.691 20.621 16.914 3.2539 34.105-2.3125 45.98-14.891 19.008-20.133 56.289-53.906 92.445-53.906h144.07c36.156 0 73.441 33.773 92.445 53.906 9.6406 10.215 22.785 15.805 36.445 15.805 3.1641 0 6.3555-0.30078 9.5352-0.91016 12.926-2.4844 24.184-9.8086 31.691-20.621 7.5078-10.809 10.449-23.91 8.2773-36.898-5.5664-33.316-14.219-79.203-23.824-108.61-4.5273-13.867-10.695-28.129-17.867-41.621 9.8086 3.375 20.516 5.1289 31.574 5.1289 35.539 0 66.469-18.719 73.547-44.508 0.22656-0.81641 0.21875-1.668-0.019531-2.4727zm-344.47-197.88c22.07-14.004 46.219-23.605 71.879-28.574l12.609 42.34c-21.605 3.1641-41.98 10.887-60.621 22.992-2.0781 1.3477-2.668 4.1289-1.3203 6.2031 0.85938 1.3242 2.2969 2.043 3.7656 2.043 0.83594 0 1.6836-0.23438 2.4375-0.72266 17.914-11.637 37.531-18.961 58.324-21.812l10.77 36.168c-26.688 1.6172-51.559 9.793-73.984 24.355-2.0781 1.3477-2.668 4.1289-1.3203 6.2031 0.85937 1.3242 2.2969 2.043 3.7656 2.043 0.83594 0 1.6836-0.23438 2.4375-0.72266 21.688-14.086 45.812-21.816 71.734-23.027l12.707 42.676c-3.9844-0.47656-8.0312-0.71875-12.098-0.71875-41.395 0-75.07 25.023-75.07 55.781 0 8.4883 2.5312 16.719 7.3789 24.215h-33.406zm-189.82-25.355c69.625-15.164 130.43-6.625 180.85 25.355v189.45h-9.8438c-5.4766-6.8398-26.223-28.699-67.641-28.699-22.281 0-45.527 14.293-67.219 41.336-13.918 17.352-26.844 39.867-36.141 62.57zm438.53 309.49c9.4336 28.883 17.988 74.293 23.504 107.31 3.7148 22.23-10.699 42.977-32.816 47.23-13.891 2.668-28.008-1.9062-37.766-12.242-24.43-25.875-61.426-56.719-98.969-56.719h-144.07c-37.543 0-74.543 30.844-98.969 56.719-9.7578 10.336-23.879 14.914-37.766 12.242-22.117-4.2539-36.531-25-32.816-47.23 5.5156-33.012 14.07-78.426 23.504-107.31 8.832-27.047 24.074-55.621 40.773-76.438 13.898-17.328 35.629-37.98 60.223-37.98 29.219 0 46.84 11.801 55.383 19.73h-7.9961c-2.4766 0-4.4844 2.0078-4.4844 4.4844 0 2.4766 2.0078 4.4844 4.4844 4.4844h139.39c2.4766 0 4.4844-2.0078 4.4844-4.4844 0-2.4766-2.0078-4.4844-4.4844-4.4844h-7.9961c8.5469-7.9297 26.168-19.73 55.383-19.73 24.594 0 46.324 20.652 60.223 37.98 16.703 20.812 31.945 49.391 40.781 76.438zm-88.121-218.4c-6.5781-1.7695-13.137-3.2266-19.527-4.3594l-11.59-38.922c9.3359 1.168 18.988 3.0742 28.785 5.7109 0.39062 0.10547 0.78125 0.15625 1.168 0.15625 1.9805 0 3.7891-1.3203 4.3281-3.3203 0.64453-2.3906-0.77344-4.8516-3.168-5.4961-11.559-3.1094-22.949-5.25-33.902-6.3984l-2.5664-8.6133 56.727-19.559v185.93c-2.8398-1.7109-5.6836-3.207-8.5273-4.4883l-28.387-95.324c4.7188 0.94531 9.5078 2.0625 14.316 3.3555 0.39062 0.10547 0.78125 0.15625 1.168 0.15625 1.9805 0 3.7891-1.3203 4.3281-3.3203 0.65625-2.3984-0.76172-4.8594-3.1523-5.5039zm29.234 111.25v-195.14l43.445-14.98 49.773 167.15c-3.9844-0.47656-8.0312-0.71875-12.094-0.71875-38.363 0-70.078 21.5-74.52 49.133-2.1953-1.9414-4.3984-3.7578-6.6055-5.4414zm81.121 58.902c-14.098 0-27.508-3.1172-38.867-9.0078-5.3984-8.9492-11.176-17.355-17.145-24.797-3.3164-4.1367-6.6719-7.9688-10.051-11.504-0.023438-0.50391-0.035156-1.0039-0.035156-1.5039 0-25.812 29.652-46.812 66.098-46.812 5.957 0 11.867 0.56641 17.559 1.6836 1.5391 0.30078 3.1289-0.22656 4.1836-1.3867 1.0547-1.1602 1.4258-2.7891 0.98047-4.2969l-53.141-178.45c-0.34766-1.1719-1.1602-2.1523-2.25-2.7109-1.0859-0.55859-2.3555-0.65234-3.5117-0.25l-117.63 40.562c-2.2695 0.78125-3.5234 3.2188-2.8359 5.5195l47.555 159.7c-4.7383-1.2461-9.4609-1.8867-14.141-1.8867-41.422 0-62.164 21.859-67.645 28.699h-35.484c-6.2812-7.3086-9.5938-15.645-9.5938-24.215 0-25.812 29.652-46.812 66.098-46.812 5.957 0 11.867 0.56641 17.562 1.6836 1.5391 0.30078 3.1289-0.22656 4.1836-1.3867 1.0547-1.1602 1.4258-2.7891 0.98047-4.2969l-46.895-157.48 169.07-58.293 89.492 300.52c-6.6719 21.348-33.543 36.715-64.543 36.715z"/>
  <path d="m120.69 139.77c49.121-13.219 92.691-7.793 129.51 16.117 0.75391 0.49219 1.6016 0.72266 2.4375 0.72266 1.4688 0 2.9062-0.71875 3.7656-2.043 1.3477-2.0781 0.75781-4.8555-1.3203-6.2031-39.043-25.355-85.043-31.168-136.73-17.258-2.3906 0.64062-3.8086 3.1055-3.168 5.4961 0.64844 2.3906 3.1133 3.8125 5.5039 3.168z"/>
  <path d="m120.69 186.01c49.121-13.215 92.691-7.793 129.51 16.117 0.75391 0.49219 1.6016 0.72266 2.4375 0.72266 1.4688 0 2.9062-0.71875 3.7656-2.043 1.3477-2.0781 0.75781-4.8555-1.3203-6.2031-39.043-25.355-85.043-31.168-136.73-17.258-2.3906 0.64062-3.8086 3.1055-3.168 5.4961 0.64844 2.3945 3.1133 3.8086 5.5039 3.168z"/>
  <path d="m250.2 248.36c0.75391 0.49219 1.6016 0.72266 2.4375 0.72266 1.4688 0 2.9062-0.71875 3.7656-2.043 1.3477-2.0781 0.75781-4.8555-1.3203-6.2031-39.043-25.355-85.043-31.168-136.73-17.258-2.3906 0.64062-3.8086 3.1055-3.168 5.4961s3.1055 3.8086 5.4961 3.1641c49.129-13.215 92.699-7.7891 129.52 16.121z"/>
  
 </g>
</svg>
