<?xml version="1.0" encoding="UTF-8"?>
<svg width="100pt" height="100pt" version="1.1" viewBox="0 0 700 550" stroke ="red" fill ="yellow" 
   xmlns="http://www.w3.org/2000/svg" xmlns:xlink="http://www.w3.org/1999/xlink">
 <defs>
  <symbol id="m" overflow="visible">
   <path d="m29.312-1.75c-1.5117 0.78125-3.0898 1.3711-4.7344 1.7656-1.6367 0.40625-3.3398 0.60938-5.1094 0.60938-5.3125 0-9.5273-1.4844-12.641-4.4531-3.1055-2.9688-4.6562-7-4.6562-12.094s1.5508-9.125 4.6562-12.094c3.1133-2.9688 7.3281-4.4531 12.641-4.4531 1.7695 0 3.4727 0.19922 5.1094 0.59375 1.6445 0.39844 3.2227 0.99219 4.7344 1.7812v6.5938c-1.5312-1.0391-3.0391-1.8008-4.5156-2.2812-1.4805-0.48828-3.0391-0.73438-4.6719-0.73438-2.9375 0-5.2461 0.94531-6.9219 2.8281-1.6797 1.875-2.5156 4.4648-2.5156 7.7656 0 3.293 0.83594 5.8828 2.5156 7.7656 1.6758 1.875 3.9844 2.8125 6.9219 2.8125 1.6328 0 3.1914-0.23828 4.6719-0.71875 1.4766-0.48828 2.9844-1.2539 4.5156-2.2969z"/>
  </symbol>
  <symbol id="c" overflow="visible">
   <path d="m21.453-17.406c-0.67969-0.3125-1.3516-0.53906-2.0156-0.6875-0.65625-0.15625-1.3203-0.23438-1.9844-0.23438-1.9688 0-3.4844 0.63281-4.5469 1.8906-1.0547 1.2617-1.5781 3.0703-1.5781 5.4219v11.016h-7.6562v-23.922h7.6562v3.9219c0.97656-1.5625 2.1016-2.7031 3.375-3.4219 1.2812-0.71875 2.8125-1.0781 4.5938-1.0781 0.25 0 0.52344 0.011719 0.82812 0.03125 0.30078 0.023438 0.73438 0.070312 1.2969 0.14062z"/>
  </symbol>
  <symbol id="d" overflow="visible">
   <path d="m27.562-12.031v2.1875h-17.891c0.1875 1.793 0.83203 3.1367 1.9375 4.0312 1.1133 0.89844 2.6719 1.3438 4.6719 1.3438 1.6016 0 3.25-0.23438 4.9375-0.70312 1.6875-0.47656 3.4219-1.2031 5.2031-2.1719v5.8906c-1.8047 0.6875-3.6094 1.2031-5.4219 1.5469-1.8125 0.35156-3.6211 0.53125-5.4219 0.53125-4.3359 0-7.7031-1.0977-10.109-3.2969-2.3984-2.207-3.5938-5.2969-3.5938-9.2656 0-3.9062 1.1758-6.9727 3.5312-9.2031 2.3633-2.2383 5.6094-3.3594 9.7344-3.3594 3.7578 0 6.7695 1.1367 9.0312 3.4062 2.2578 2.2617 3.3906 5.2812 3.3906 9.0625zm-7.8594-2.5312c0-1.457-0.42969-2.6289-1.2812-3.5156-0.84375-0.89453-1.9492-1.3438-3.3125-1.3438-1.4922 0-2.6992 0.41797-3.625 1.25-0.91797 0.83594-1.4922 2.0391-1.7188 3.6094z"/>
  </symbol>
  <symbol id="b" overflow="visible">
   <path d="m14.391-10.766c-1.5938 0-2.793 0.27344-3.5938 0.8125-0.80469 0.54297-1.2031 1.3398-1.2031 2.3906 0 0.96875 0.32031 1.7305 0.96875 2.2812 0.64453 0.54297 1.5469 0.8125 2.7031 0.8125 1.4375 0 2.6445-0.51562 3.625-1.5469 0.98828-1.0312 1.4844-2.3203 1.4844-3.875v-0.875zm11.688-2.8906v13.656h-7.7031v-3.5469c-1.0312 1.4492-2.1875 2.5078-3.4688 3.1719s-2.8398 1-4.6719 1c-2.4805 0-4.4961-0.72266-6.0469-2.1719-1.543-1.4453-2.3125-3.3203-2.3125-5.625 0-2.8125 0.96094-4.8672 2.8906-6.1719 1.9375-1.3125 4.9688-1.9688 9.0938-1.9688h4.5156v-0.60938c0-1.207-0.48047-2.0938-1.4375-2.6562-0.94922-0.5625-2.4375-0.84375-4.4688-0.84375-1.6367 0-3.1562 0.16797-4.5625 0.5-1.4062 0.32422-2.7188 0.8125-3.9375 1.4688v-5.8281c1.6445-0.40625 3.2891-0.70703 4.9375-0.90625 1.6562-0.20703 3.3047-0.3125 4.9531-0.3125 4.3203 0 7.4375 0.85547 9.3438 2.5625 1.9141 1.6992 2.875 4.4609 2.875 8.2812z"/>
  </symbol>
  <symbol id="a" overflow="visible">
   <path d="m12.031-30.719v6.7969h7.875v5.4688h-7.875v10.141c0 1.1172 0.21875 1.8711 0.65625 2.2656 0.4375 0.38672 1.3125 0.57812 2.625 0.57812h3.9375v5.4688h-6.5625c-3.0234 0-5.1641-0.62891-6.4219-1.8906-1.2617-1.2578-1.8906-3.3984-1.8906-6.4219v-10.141h-3.7969v-5.4688h3.7969v-6.7969z"/>
  </symbol>
  <symbol id="i" overflow="visible">
   <path d="m19.953-20.422v-12.812h7.6875v33.234h-7.6875v-3.4531c-1.0547 1.4062-2.2148 2.4375-3.4844 3.0938-1.2734 0.65625-2.7422 0.98438-4.4062 0.98438-2.9492 0-5.3711-1.1719-7.2656-3.5156-1.8867-2.3438-2.8281-5.3594-2.8281-9.0469s0.94141-6.7031 2.8281-9.0469c1.8945-2.3438 4.3164-3.5156 7.2656-3.5156 1.6562 0 3.1172 0.33594 4.3906 1 1.2812 0.65625 2.4453 1.6836 3.5 3.0781zm-5.0469 15.484c1.6445 0 2.8945-0.59766 3.75-1.7969 0.86328-1.1953 1.2969-2.9297 1.2969-5.2031 0-2.2812-0.43359-4.0195-1.2969-5.2188-0.85547-1.1953-2.1055-1.7969-3.75-1.7969-1.625 0-2.8711 0.60156-3.7344 1.7969-0.85547 1.1992-1.2812 2.9375-1.2812 5.2188 0 2.2734 0.42578 4.0078 1.2812 5.2031 0.86328 1.1992 2.1094 1.7969 3.7344 1.7969z"/>
  </symbol>
  <symbol id="h" overflow="visible">
   <path d="m16.406-4.9375c1.6328 0 2.8828-0.59766 3.75-1.7969 0.86328-1.1953 1.2969-2.9297 1.2969-5.2031 0-2.2812-0.43359-4.0195-1.2969-5.2188-0.86719-1.1953-2.1172-1.7969-3.75-1.7969-1.6367 0-2.8906 0.60547-3.7656 1.8125-0.875 1.1992-1.3125 2.9336-1.3125 5.2031 0 2.2617 0.4375 3.9961 1.3125 5.2031 0.875 1.1992 2.1289 1.7969 3.7656 1.7969zm-5.0781-15.484c1.0508-1.3945 2.2188-2.4219 3.5-3.0781 1.2812-0.66406 2.7539-1 4.4219-1 2.9453 0 5.3672 1.1719 7.2656 3.5156 1.8945 2.3438 2.8438 5.3594 2.8438 9.0469s-0.94922 6.7031-2.8438 9.0469c-1.8984 2.3438-4.3203 3.5156-7.2656 3.5156-1.668 0-3.1406-0.33594-4.4219-1s-2.4492-1.6914-3.5-3.0781v3.4531h-7.6562v-33.234h7.6562z"/>
  </symbol>
  <symbol id="g" overflow="visible">
   <path d="m0.53125-23.922h7.6562l6.4219 16.234 5.4688-16.234h7.6562l-10.062 26.188c-1.0117 2.6641-2.1953 4.5234-3.5469 5.5781-1.3438 1.0625-3.1211 1.5938-5.3281 1.5938h-4.4219v-5.0156h2.3906c1.3008 0 2.2422-0.21094 2.8281-0.625 0.59375-0.40625 1.0547-1.1484 1.3906-2.2188l0.20312-0.65625z"/>
  </symbol>
  <symbol id="f" overflow="visible">
   <path d="m26.219-30.891v6.75c-1.7617-0.78125-3.4766-1.3672-5.1406-1.7656-1.668-0.40625-3.2422-0.60938-4.7188-0.60938-1.9609 0-3.4141 0.27344-4.3594 0.8125-0.9375 0.54297-1.4062 1.3867-1.4062 2.5312 0 0.85547 0.31641 1.5234 0.95312 2 0.63281 0.46875 1.7852 0.875 3.4531 1.2188l3.5 0.70312c3.5391 0.71875 6.0625 1.8047 7.5625 3.25 1.5 1.4492 2.25 3.5117 2.25 6.1875 0 3.5234-1.0469 6.1406-3.1406 7.8594-2.0859 1.7188-5.2734 2.5781-9.5625 2.5781-2.0234 0-4.0547-0.19531-6.0938-0.57812-2.0312-0.38281-4.0625-0.95703-6.0938-1.7188v-6.9375c2.0312 1.0859 3.9922 1.9023 5.8906 2.4531 1.9062 0.54297 3.7422 0.8125 5.5156 0.8125 1.7891 0 3.1602-0.29688 4.1094-0.89062 0.95703-0.60156 1.4375-1.457 1.4375-2.5625 0-1-0.32422-1.7695-0.96875-2.3125-0.64844-0.53906-1.9375-1.0234-3.875-1.4531l-3.1875-0.70312c-3.1875-0.6875-5.5234-1.7734-7-3.2656-1.4688-1.5-2.2031-3.5156-2.2031-6.0469 0-3.1758 1.0234-5.6172 3.0781-7.3281 2.0508-1.707 5-2.5625 8.8438-2.5625 1.75 0 3.5508 0.13281 5.4062 0.39062 1.8516 0.26172 3.7695 0.65625 5.75 1.1875z"/>
  </symbol>
  <symbol id="l" overflow="visible">
   <path d="m4.0156-31.891h8.2188v19.109c0 2.6367 0.42969 4.5234 1.2969 5.6562 0.86328 1.1367 2.2695 1.7031 4.2188 1.7031 1.9688 0 3.3789-0.56641 4.2344-1.7031 0.86328-1.1328 1.2969-3.0195 1.2969-5.6562v-19.109h8.2344v19.109c0 4.5234-1.1367 7.8867-3.4062 10.094-2.2617 2.2109-5.7148 3.3125-10.359 3.3125-4.625 0-8.0742-1.1016-10.344-3.3125-2.2617-2.207-3.3906-5.5703-3.3906-10.094z"/>
  </symbol>
  <symbol id="e" overflow="visible">
   <path d="m11.328-3.4531v12.547h-7.6562v-33.016h7.6562v3.5c1.0508-1.3945 2.2188-2.4219 3.5-3.0781 1.2812-0.66406 2.7539-1 4.4219-1 2.9453 0 5.3672 1.1719 7.2656 3.5156 1.8945 2.3438 2.8438 5.3594 2.8438 9.0469s-0.94922 6.7031-2.8438 9.0469c-1.8984 2.3438-4.3203 3.5156-7.2656 3.5156-1.668 0-3.1406-0.33594-4.4219-1s-2.4492-1.6914-3.5-3.0781zm5.0781-15.5c-1.6367 0-2.8906 0.60547-3.7656 1.8125-0.875 1.1992-1.3125 2.9336-1.3125 5.2031 0 2.2617 0.4375 3.9961 1.3125 5.2031 0.875 1.1992 2.1289 1.7969 3.7656 1.7969 1.6328 0 2.8828-0.59766 3.75-1.7969 0.86328-1.1953 1.2969-2.9297 1.2969-5.2031 0-2.2812-0.43359-4.0195-1.2969-5.2188-0.86719-1.1953-2.1172-1.7969-3.75-1.7969z"/>
  </symbol>
  <symbol id="k" overflow="visible">
   <path d="m32.688-2.375c-2.0547 1-4.1836 1.75-6.3906 2.25-2.2109 0.5-4.4844 0.75-6.8281 0.75-5.3125 0-9.5273-1.4844-12.641-4.4531-3.1055-2.9688-4.6562-7-4.6562-12.094 0-5.1328 1.5781-9.1758 4.7344-12.125 3.1641-2.9453 7.5-4.4219 13-4.4219 2.125 0 4.1562 0.19922 6.0938 0.59375 1.9453 0.39844 3.7852 0.99219 5.5156 1.7812v6.5938c-1.7812-1.0078-3.5547-1.7656-5.3125-2.2656-1.7617-0.5-3.5273-0.75-5.2969-0.75-3.2734 0-5.793 0.91797-7.5625 2.75-1.7734 1.8359-2.6562 4.4492-2.6562 7.8438 0 3.375 0.85156 5.9844 2.5625 7.8281 1.707 1.8359 4.1328 2.75 7.2812 2.75 0.85156 0 1.6445-0.050781 2.375-0.15625 0.73828-0.10156 1.3984-0.26953 1.9844-0.5v-6.2031h-5.0312v-5.5h12.828z"/>
  </symbol>
  <symbol id="j" overflow="visible">
   <path d="m27.734-14.562v14.562h-7.7031v-11.109c0-2.0938-0.046875-3.5312-0.14062-4.3125-0.085937-0.78125-0.24219-1.3594-0.46875-1.7344-0.30469-0.5-0.71094-0.88281-1.2188-1.1562-0.51172-0.28125-1.0938-0.42188-1.75-0.42188-1.5938 0-2.8516 0.61719-3.7656 1.8438-0.90625 1.2305-1.3594 2.9375-1.3594 5.125v11.766h-7.6562v-33.234h7.6562v12.812c1.1445-1.3945 2.3633-2.4219 3.6562-3.0781 1.3008-0.66406 2.7383-1 4.3125-1 2.7578 0 4.8516 0.85156 6.2812 2.5469 1.4375 1.6875 2.1562 4.1523 2.1562 7.3906z"/>
  </symbol>
 </defs>
 <g>
  <path d="m315 245h-61.25c-4.832 0-8.75 3.918-8.75 8.75v78.75h-35v17.5h35v17.5h-35v17.5h35v61.25h17.5v-61.25h35v-17.5h-35v-17.5h52.5c18.758 0 36.09-10.008 45.465-26.25 9.3789-16.242 9.3789-36.258 0-52.5-9.375-16.242-26.707-26.25-45.465-26.25zm0 87.5h-52.5v-70h52.5c12.504 0 24.059 6.6719 30.312 17.5 6.25 10.828 6.25 24.172 0 35-6.2539 10.828-17.809 17.5-30.312 17.5z"/>
  <path d="m288.75 183.75c-41.773 0-81.832 16.594-111.37 46.129-29.535 29.539-46.129 69.598-46.129 111.37s16.594 81.832 46.129 111.37c29.539 29.535 69.598 46.129 111.37 46.129s81.832-16.594 111.37-46.129c29.535-29.539 46.129-69.598 46.129-111.37-0.046875-41.758-16.656-81.789-46.184-111.32s-69.559-46.137-111.32-46.184zm0 297.5c-37.129 0-72.738-14.75-98.996-41.004-26.254-26.258-41.004-61.867-41.004-98.996s14.75-72.738 41.004-98.996c26.258-26.254 61.867-41.004 98.996-41.004s72.738 14.75 98.996 41.004c26.254 26.258 41.004 61.867 41.004 98.996-0.042969 37.117-14.809 72.699-41.055 98.945-26.246 26.246-61.828 41.012-98.945 41.055z"/>
  <path d="m621.25 218.75c-0.0625-55.676-22.207-109.05-61.578-148.42-39.367-39.371-92.746-61.516-148.42-61.578-5.9766 0-11.961 0.26953-17.816 0.76172-5.668-0.46484-11.391-0.76172-17.184-0.76172-46.559-0.12109-91.828 15.289-128.64 43.797-36.812 28.508-63.059 68.48-74.59 113.59-37.676 24.871-66.328 61.223-81.711 103.66-15.383 42.441-16.672 88.711-3.6836 131.95 12.992 43.23 39.574 81.125 75.805 108.06 36.227 26.93 80.172 41.465 125.32 41.449 5.8086 0 11.543-0.29688 17.238-0.76172 5.8984 0.48828 11.863 0.76172 17.762 0.76172 46.527-0.0625 91.719-15.543 128.51-44.023 36.789-28.48 63.102-68.355 74.816-113.38 28.996-19.078 52.785-45.074 69.227-75.641 16.441-30.57 25.016-64.75 24.949-99.457zm-27.547-61.25h-16.625c-2.7461-8.9688-6.0977-17.738-10.035-26.25h15.551c4.3516 8.4609 8.0664 17.234 11.109 26.25zm-7.6719 52.5c-0.47266-11.77-1.9336-23.477-4.375-35h17.02c2.6914 11.492 4.3164 23.207 4.8555 35zm-0.19141 17.5h17.641c-0.53125 11.789-2.1367 23.504-4.7969 35h-17.16c2.4141-11.527 3.8555-23.234 4.3164-35zm-8.75 52.5h16.723-0.003906c-3.0234 9.0117-6.7227 17.789-11.059 26.25h-15.75c3.9453-8.5117 7.3086-17.285 10.07-26.25zm-4.6016-166.25h-14.492c-5.3242-9.1914-11.34-17.969-17.988-26.25h11.883c7.5977 8.1445 14.484 16.926 20.578 26.25zm-39.191-43.75h-8.9688c-9.2969-9.2539-19.43-17.625-30.277-25 14.043 6.7188 27.223 15.113 39.246 25zm-157.05-43.75c47.266-0.058594 92.898 17.293 128.18 48.746s57.738 74.801 63.082 121.77c5.3477 46.961-6.793 94.246-34.102 132.82-1.0195-18.438-4.4805-36.66-10.293-54.188 18.887-49.305 11.816-104.79-18.836-147.78-30.648-42.988-80.801-67.762-133.57-65.977-52.77 1.7891-101.13 29.895-128.8 74.855l0.11328 0.0625c-16.188 3.6914-31.875 9.3047-46.73 16.719 13.355-37.266 37.922-69.48 70.324-92.227 32.398-22.746 71.047-34.902 110.63-34.805zm122.28 306.25c-0.47266-11.77-1.9336-23.477-4.375-35h17.02c2.6914 11.492 4.3164 23.207 4.8555 35zm14.168-82.828c-17.223-35.469-44.074-65.383-77.484-86.32-33.41-20.941-72.035-32.066-111.46-32.102-5.9766 0-11.961 0.26953-17.816 0.76172-5.6758-0.46484-11.391-0.76172-17.184-0.76172-7.6016 0.007812-15.195 0.42578-22.75 1.25 26.258-33.785 66.543-53.688 109.33-54.02 42.789-0.33594 83.375 18.941 110.15 52.316 26.781 33.375 36.809 77.176 27.215 118.88zm-66.902-57.172h-8.9688c-9.2969-9.2578-19.438-17.629-30.285-25.008 14.043 6.7227 27.223 15.121 39.254 25.008zm18.594 17.5c7.5977 8.1445 14.484 16.926 20.578 26.25h-14.473c-5.3281-9.1914-11.34-17.965-17.988-26.25zm30.738 43.75c4.3398 8.4609 8.043 17.238 11.074 26.25h-16.625c-2.75-8.9648-6.1016-17.734-10.035-26.25zm-5.5117 148.75h16.625-0.003907c-3.0352 9.0117-6.7344 17.789-11.074 26.25h-15.586c3.9336-8.5156 7.2852-17.285 10.035-26.25zm4.5156-17.5h-0.003906c2.4414-11.523 3.9062-23.23 4.375-35h17.5c-0.53906 11.793-2.1641 23.508-4.8555 35zm-397.88-43.75c0-51.055 20.281-100.02 56.383-136.12 36.102-36.102 85.062-56.383 136.12-56.383s100.02 20.281 136.12 56.383c36.102 36.102 56.383 85.062 56.383 136.12s-20.281 100.02-56.383 136.12c-36.102 36.102-85.062 56.383-136.12 56.383-51.035-0.058594-99.965-20.359-136.05-56.445-36.086-36.09-56.387-85.02-56.445-136.05zm340.58 148.75h8.9688c-12.031 9.8867-25.211 18.285-39.254 25.008 10.848-7.3789 20.988-15.75 30.285-25.008zm27.562-17.5h-11.883c6.6484-8.2852 12.66-17.059 17.988-26.25h14.473c-6.0938 9.3242-12.98 18.105-20.578 26.25zm67.516-103.81c0.45312-3.5 0.82422-7 1.1016-10.5 9.4414-10.609 17.785-22.148 24.902-34.441h14.734c-11.117 17.043-24.867 32.211-40.742 44.941z"/>
 </g>
</svg>
