<?xml version="1.0" encoding="UTF-8"?>
<svg width="700pt" height="700pt" version="1.1" viewBox="0 0 700 550" xmlns="http://www.w3.org/2000/svg" xmlns:xlink="http://www.w3.org/1999/xlink">
 <defs>
  <symbol id="v" overflow="visible">
   <path d="m19.734-1.1875c-1.0117 0.53125-2.0703 0.93359-3.1719 1.2031-1.1055 0.26953-2.2578 0.40625-3.4531 0.40625-3.5859 0-6.4219-1-8.5156-3-2.0859-2-3.125-4.7109-3.125-8.1406 0-3.4375 1.0391-6.1562 3.125-8.1562 2.0938-2 4.9297-3 8.5156-3 1.1953 0 2.3477 0.13672 3.4531 0.40625 1.1016 0.27344 2.1602 0.66797 3.1719 1.1875v4.4531c-1.0234-0.69531-2.0312-1.207-3.0312-1.5312-1-0.33203-2.0547-0.5-3.1562-0.5-1.9688 0-3.5234 0.63672-4.6562 1.9062-1.1367 1.2617-1.7031 3.0078-1.7031 5.2344 0 2.2188 0.56641 3.9648 1.7031 5.2344 1.1328 1.2617 2.6875 1.8906 4.6562 1.8906 1.1016 0 2.1562-0.16016 3.1562-0.48438 1-0.33203 2.0078-0.84766 3.0312-1.5469z"/>
  </symbol>
  <symbol id="b" overflow="visible">
   <path d="m14.453-11.734c-0.46094-0.20703-0.91406-0.35938-1.3594-0.45312-0.4375-0.10156-0.88672-0.15625-1.3438-0.15625-1.3242 0-2.3438 0.42969-3.0625 1.2812-0.71094 0.84375-1.0625 2.0586-1.0625 3.6406v7.4219h-5.1562v-16.109h5.1562v2.6406c0.66406-1.0508 1.4258-1.8164 2.2812-2.2969 0.85156-0.48828 1.8828-0.73438 3.0938-0.73438 0.16406 0 0.34766 0.007812 0.54688 0.015625 0.20703 0.011719 0.50391 0.042969 0.89062 0.09375z"/>
  </symbol>
  <symbol id="a" overflow="visible">
   <path d="m18.562-8.0938v1.4531h-12.047c0.125 1.2109 0.5625 2.1211 1.3125 2.7344 0.75 0.60547 1.7969 0.90625 3.1406 0.90625 1.082 0 2.1914-0.16016 3.3281-0.48438 1.1328-0.32031 2.3008-0.8125 3.5-1.4688v3.9688c-1.2188 0.46875-2.4375 0.82031-3.6562 1.0469-1.2188 0.23828-2.4375 0.35938-3.6562 0.35938-2.918 0-5.1836-0.73828-6.7969-2.2188-1.6172-1.4883-2.4219-3.5703-2.4219-6.25 0-2.625 0.78906-4.6875 2.375-6.1875 1.5938-1.5078 3.7812-2.2656 6.5625-2.2656 2.5312 0 4.5547 0.76562 6.0781 2.2969 1.5195 1.5234 2.2812 3.5586 2.2812 6.1094zm-5.2969-1.7188c0-0.97656-0.28906-1.7656-0.85938-2.3594-0.57422-0.60156-1.3203-0.90625-2.2344-0.90625-1 0-1.8125 0.28125-2.4375 0.84375-0.61719 0.5625-1 1.3711-1.1562 2.4219z"/>
  </symbol>
  <symbol id="g" overflow="visible">
   <path d="m9.7031-7.25c-1.0742 0-1.8867 0.18359-2.4375 0.54688-0.54297 0.36719-0.8125 0.90234-0.8125 1.6094 0 0.65625 0.21875 1.1719 0.65625 1.5469 0.4375 0.36719 1.0469 0.54688 1.8281 0.54688 0.96875 0 1.7812-0.34766 2.4375-1.0469 0.66406-0.69531 1-1.5664 1-2.6094v-0.59375zm7.8594-1.9375v9.1875h-5.1875v-2.3906c-0.6875 0.98047-1.4648 1.6953-2.3281 2.1406-0.86719 0.44531-1.918 0.67188-3.1562 0.67188-1.668 0-3.0234-0.48438-4.0625-1.4531-1.043-0.97656-1.5625-2.2422-1.5625-3.7969 0-1.8945 0.64844-3.2812 1.9531-4.1562 1.3008-0.88281 3.3438-1.3281 6.125-1.3281h3.0312v-0.40625c0-0.8125-0.32422-1.4062-0.96875-1.7812-0.63672-0.38281-1.6367-0.57812-3-0.57812-1.1055 0-2.1328 0.10938-3.0781 0.32812-0.94922 0.21875-1.8359 0.55469-2.6562 1v-3.9375c1.1016-0.26953 2.2109-0.47266 3.3281-0.60938 1.1133-0.13281 2.2266-0.20312 3.3438-0.20312 2.9062 0 5 0.57422 6.2812 1.7188 1.2891 1.1484 1.9375 3.0117 1.9375 5.5938z"/>
  </symbol>
  <symbol id="c" overflow="visible">
   <path d="m8.0938-20.688v4.5781h5.3125v3.6719h-5.3125v6.8438c0 0.75 0.14844 1.2578 0.45312 1.5156 0.30078 0.26172 0.89062 0.39062 1.7656 0.39062h2.6562v3.6875h-4.4219c-2.0312 0-3.4766-0.42188-4.3281-1.2656-0.84375-0.85156-1.2656-2.2969-1.2656-4.3281v-6.8438h-2.5625v-3.6719h2.5625v-4.5781z"/>
  </symbol>
  <symbol id="f" overflow="visible">
   <path d="m13.438-13.75v-8.6406h5.1875v22.391h-5.1875v-2.3281c-0.71094 0.94922-1.4922 1.6484-2.3438 2.0938-0.85547 0.4375-1.8438 0.65625-2.9688 0.65625-1.9805 0-3.6094-0.78516-4.8906-2.3594-1.2734-1.582-1.9062-3.6172-1.9062-6.1094 0-2.4766 0.63281-4.5039 1.9062-6.0781 1.2812-1.582 2.9102-2.375 4.8906-2.375 1.1133 0 2.0977 0.22656 2.9531 0.67188 0.86328 0.4375 1.6484 1.1328 2.3594 2.0781zm-3.3906 10.422c1.1016 0 1.9414-0.39844 2.5156-1.2031 0.58203-0.80078 0.875-1.9727 0.875-3.5156 0-1.5312-0.29297-2.6953-0.875-3.5-0.57422-0.8125-1.4141-1.2188-2.5156-1.2188-1.0938 0-1.9336 0.40625-2.5156 1.2188-0.58594 0.80469-0.875 1.9688-0.875 3.5 0 1.543 0.28906 2.7148 0.875 3.5156 0.58203 0.80469 1.4219 1.2031 2.5156 1.2031z"/>
  </symbol>
  <symbol id="l" overflow="visible">
   <path d="m11.047-3.3281c1.1016 0 1.9453-0.39844 2.5312-1.2031 0.58203-0.80078 0.875-1.9727 0.875-3.5156 0-1.5312-0.29297-2.6953-0.875-3.5-0.58594-0.8125-1.4297-1.2188-2.5312-1.2188-1.1055 0-1.9531 0.40625-2.5469 1.2188-0.58594 0.8125-0.875 1.9805-0.875 3.5 0 1.5312 0.28906 2.7031 0.875 3.5156 0.59375 0.80469 1.4414 1.2031 2.5469 1.2031zm-3.4219-10.422c0.70703-0.94531 1.4922-1.6406 2.3594-2.0781 0.86328-0.44531 1.8594-0.67188 2.9844-0.67188 1.9766 0 3.6016 0.79297 4.875 2.375 1.2812 1.5742 1.9219 3.6016 1.9219 6.0781 0 2.4922-0.64062 4.5273-1.9219 6.1094-1.2734 1.5742-2.8984 2.3594-4.875 2.3594-1.125 0-2.1211-0.22656-2.9844-0.67188-0.86719-0.44531-1.6523-1.1406-2.3594-2.0781v2.3281h-5.1562v-22.391h5.1562z"/>
  </symbol>
  <symbol id="k" overflow="visible">
   <path d="m0.35938-16.109h5.1562l4.3281 10.922 3.6875-10.922h5.1406l-6.7656 17.641c-0.6875 1.7891-1.4844 3.0391-2.3906 3.75-0.90625 0.71875-2.1055 1.0781-3.5938 1.0781h-2.9688v-3.375h1.6094c0.875 0 1.5078-0.14062 1.9062-0.42188 0.39453-0.28125 0.70312-0.78125 0.92188-1.5l0.15625-0.4375z"/>
  </symbol>
  <symbol id="j" overflow="visible">
   <path d="m22.016-1.5938c-1.3867 0.66797-2.8242 1.1719-4.3125 1.5156-1.4805 0.33203-3.0117 0.5-4.5938 0.5-3.5859 0-6.4219-1-8.5156-3-2.0859-2-3.125-4.7109-3.125-8.1406 0-3.4688 1.0625-6.1914 3.1875-8.1719 2.1328-1.9883 5.0508-2.9844 8.75-2.9844 1.4258 0 2.7969 0.13672 4.1094 0.40625 1.3125 0.27344 2.5469 0.66797 3.7031 1.1875v4.4531c-1.1992-0.67578-2.3906-1.1797-3.5781-1.5156-1.1797-0.34375-2.3594-0.51562-3.5469-0.51562-2.2109 0-3.9141 0.62109-5.1094 1.8594-1.1992 1.2305-1.7969 2.9922-1.7969 5.2812 0 2.2734 0.57031 4.0273 1.7188 5.2656 1.1562 1.2422 2.7969 1.8594 4.9219 1.8594 0.57031 0 1.1016-0.035156 1.5938-0.10938 0.5-0.070313 0.94531-0.1875 1.3438-0.34375v-4.1719h-3.3906v-3.7031h8.6406z"/>
  </symbol>
  <symbol id="e" overflow="visible">
   <path d="m2.2969-6.2812v-9.8281h5.1875v1.6094c0 0.875-0.007813 1.9766-0.015625 3.2969-0.011719 1.3125-0.015625 2.1875-0.015625 2.625 0 1.293 0.03125 2.2266 0.09375 2.7969 0.070313 0.57422 0.19141 0.99219 0.35938 1.25 0.20703 0.33594 0.47656 0.59375 0.8125 0.78125 0.34375 0.17969 0.73828 0.26562 1.1875 0.26562 1.0703 0 1.9141-0.41016 2.5312-1.2344 0.61328-0.82031 0.92188-1.9688 0.92188-3.4375v-7.9531h5.1406v16.109h-5.1406v-2.3281c-0.78125 0.9375-1.6094 1.6328-2.4844 2.0781-0.86719 0.44531-1.8203 0.67188-2.8594 0.67188-1.8672 0-3.2891-0.56641-4.2656-1.7031-0.96875-1.1445-1.4531-2.8125-1.4531-5z"/>
  </symbol>
  <symbol id="u" overflow="visible">
   <path d="m2.4688-16.109h5.1562v16.109h-5.1562zm0-6.2812h5.1562v4.2031h-5.1562z"/>
  </symbol>
  <symbol id="t" overflow="visible">
   <path d="m2.4688-22.391h5.1562v22.391h-5.1562z"/>
  </symbol>
  <symbol id="i" overflow="visible">
   <path d="m18.672-9.8125v9.8125h-5.1719v-7.4844c0-1.4062-0.03125-2.375-0.09375-2.9062s-0.17188-0.91406-0.32812-1.1562c-0.19922-0.34375-0.47656-0.60938-0.82812-0.79688-0.34375-0.1875-0.73438-0.28125-1.1719-0.28125-1.0742 0-1.918 0.41797-2.5312 1.25-0.61719 0.83594-0.92188 1.9844-0.92188 3.4531v7.9219h-5.1562v-22.391h5.1562v8.6406c0.78125-0.94531 1.6016-1.6406 2.4688-2.0781 0.875-0.44531 1.8438-0.67188 2.9062-0.67188 1.8516 0 3.2578 0.57422 4.2188 1.7188 0.96875 1.1367 1.4531 2.793 1.4531 4.9688z"/>
  </symbol>
  <symbol id="h" overflow="visible">
   <path d="m17.406-13.438c0.65625-1 1.4297-1.7578 2.3281-2.2812 0.89453-0.51953 1.8789-0.78125 2.9531-0.78125 1.8516 0 3.2656 0.57422 4.2344 1.7188 0.96875 1.1367 1.4531 2.793 1.4531 4.9688v9.8125h-5.1875v-8.4062c0.007812-0.125 0.015625-0.25391 0.015625-0.39062 0.007813-0.13281 0.015625-0.32812 0.015625-0.57812 0-1.1328-0.16797-1.957-0.5-2.4688-0.33594-0.51953-0.875-0.78125-1.625-0.78125-0.98047 0-1.7344 0.40625-2.2656 1.2188-0.53125 0.80469-0.80859 1.9688-0.82812 3.5v7.9062h-5.1719v-8.4062c0-1.7812-0.15625-2.9258-0.46875-3.4375-0.30469-0.51953-0.85156-0.78125-1.6406-0.78125-0.99219 0-1.7578 0.40625-2.2969 1.2188-0.53125 0.8125-0.79688 1.9766-0.79688 3.4844v7.9219h-5.1719v-16.109h5.1719v2.3594c0.63281-0.91406 1.3594-1.6016 2.1719-2.0625 0.82031-0.45703 1.7266-0.6875 2.7188-0.6875 1.1133 0 2.0977 0.27344 2.9531 0.8125 0.85156 0.53125 1.5 1.2812 1.9375 2.25z"/>
  </symbol>
  <symbol id="s" overflow="visible">
   <path d="m2.7031-21.484h14.953v4.1875h-9.4062v4h8.8438v4.1875h-8.8438v9.1094h-5.5469z"/>
  </symbol>
  <symbol id="d" overflow="visible">
   <path d="m10.141-12.828c-1.1367 0-2.0078 0.41406-2.6094 1.2344-0.59375 0.82422-0.89062 2.0078-0.89062 3.5469 0 1.543 0.29688 2.7266 0.89062 3.5469 0.60156 0.82422 1.4727 1.2344 2.6094 1.2344 1.125 0 1.9844-0.41016 2.5781-1.2344 0.59375-0.82031 0.89062-2.0039 0.89062-3.5469 0-1.5391-0.29688-2.7227-0.89062-3.5469-0.59375-0.82031-1.4531-1.2344-2.5781-1.2344zm0-3.6719c2.7695 0 4.9375 0.75 6.5 2.25 1.5625 1.4922 2.3438 3.5586 2.3438 6.2031 0 2.6484-0.78125 4.7188-2.3438 6.2188s-3.7305 2.25-6.5 2.25c-2.7812 0-4.9609-0.75-6.5312-2.25-1.5625-1.5-2.3438-3.5703-2.3438-6.2188 0-2.6445 0.78125-4.7109 2.3438-6.2031 1.5703-1.5 3.75-2.25 6.5312-2.25z"/>
  </symbol>
  <symbol id="r" overflow="visible">
   <path d="m13.078-22.391v3.375h-2.8438c-0.73047 0-1.2422 0.13672-1.5312 0.40625-0.28125 0.26172-0.42188 0.71875-0.42188 1.375v1.125h4.3906v3.6719h-4.3906v12.438h-5.1562v-12.438h-2.5625v-3.6719h2.5625v-1.125c0-1.7578 0.48828-3.0547 1.4688-3.8906 0.97656-0.84375 2.4922-1.2656 4.5469-1.2656z"/>
  </symbol>
  <symbol id="q" overflow="visible">
   <path d="m2.7031-21.484h6.1875l7.8125 14.734v-14.734h5.25v21.484h-6.1875l-7.8125-14.734v14.734h-5.25z"/>
  </symbol>
  <symbol id="p" overflow="visible">
   <path d="m18.672-9.8125v9.8125h-5.1719v-7.5156c0-1.3828-0.03125-2.3438-0.09375-2.875s-0.17188-0.91406-0.32812-1.1562c-0.19922-0.34375-0.47656-0.60938-0.82812-0.79688-0.34375-0.1875-0.73438-0.28125-1.1719-0.28125-1.0742 0-1.918 0.41797-2.5312 1.25-0.61719 0.83594-0.92188 1.9844-0.92188 3.4531v7.9219h-5.1562v-16.109h5.1562v2.3594c0.78125-0.94531 1.6016-1.6406 2.4688-2.0781 0.875-0.44531 1.8438-0.67188 2.9062-0.67188 1.8516 0 3.2578 0.57422 4.2188 1.7188 0.96875 1.1367 1.4531 2.793 1.4531 4.9688z"/>
  </symbol>
  <symbol id="o" overflow="visible">
   <path d="m2.7031-21.484h9.2031c2.7266 0 4.8203 0.60938 6.2812 1.8281 1.4688 1.2109 2.2031 2.9375 2.2031 5.1875s-0.73438 3.9844-2.2031 5.2031c-1.4609 1.2109-3.5547 1.8125-6.2812 1.8125h-3.6562v7.4531h-5.5469zm5.5469 4.0156v6h3.0625c1.0703 0 1.8984-0.25781 2.4844-0.78125 0.58203-0.51953 0.875-1.2578 0.875-2.2188 0-0.96875-0.29297-1.707-0.875-2.2188-0.58594-0.51953-1.4141-0.78125-2.4844-0.78125z"/>
  </symbol>
  <symbol id="n" overflow="visible">
   <path d="m2.4688-16.109h5.1562v15.828c0 2.1562-0.52344 3.8008-1.5625 4.9375-1.0312 1.1328-2.5312 1.7031-4.5 1.7031h-2.5469v-3.375h0.89062c0.97656 0 1.6484-0.22656 2.0156-0.67188 0.36328-0.4375 0.54688-1.3047 0.54688-2.5938zm0-6.2812h5.1562v4.2031h-5.1562z"/>
  </symbol>
  <symbol id="m" overflow="visible">
   <path d="m15.5-15.609v4.2031c-0.69922-0.47656-1.4023-0.83203-2.1094-1.0625-0.71094-0.23828-1.4453-0.35938-2.2031-0.35938-1.4375 0-2.5586 0.42188-3.3594 1.2656-0.79297 0.84375-1.1875 2.0156-1.1875 3.5156 0 1.5117 0.39453 2.6875 1.1875 3.5312 0.80078 0.83594 1.9219 1.25 3.3594 1.25 0.8125 0 1.5781-0.11719 2.2969-0.35938 0.72656-0.23828 1.3984-0.59375 2.0156-1.0625v4.2188c-0.8125 0.29297-1.6367 0.50781-2.4688 0.65625-0.82422 0.15625-1.6523 0.23438-2.4844 0.23438-2.9062 0-5.1836-0.74219-6.8281-2.2344-1.6367-1.5-2.4531-3.5781-2.4531-6.2344s0.81641-4.7266 2.4531-6.2188c1.6445-1.4883 3.9219-2.2344 6.8281-2.2344 0.84375 0 1.6758 0.074219 2.5 0.21875 0.82031 0.14844 1.6406 0.37109 2.4531 0.67188z"/>
  </symbol>
 </defs>
 <g>
  <path d="m609.56 284.15c-0.27734-33.613-7.0039-66.223-20.012-96.969-12.832-30.336-31.195-57.586-54.602-80.98-7.3203-7.3281-15.039-14.16-23.094-20.488l0.10547-0.125c-14.883-11.676-31.07-21.699-48.105-29.781-17.371-8.2344-35.691-14.488-54.457-18.586l-0.054687 0.19922c-17.785-3.8789-36.004-5.8359-54.539-5.8359-22.293 0-44.156 2.8281-65.332 8.4453l-0.054688-0.19922c-28.047 7.4258-54.426 19.527-78.441 35.98-23.633 16.191-44.25 36.094-61.277 59.16l0.09375 0.066406c-11.914 16.105-21.883 33.547-29.75 52.156-13.074 30.906-19.801 63.703-20.02 97.5 0 0.48828-0.011719 0.96484-0.011719 1.4453v0.125 0.11328c0 34.391 6.7422 67.754 20.023 99.172 12.832 30.336 31.199 57.586 54.602 80.977 23.391 23.395 50.641 41.766 80.977 54.598 31.414 13.285 64.77 20.023 99.172 20.023 34.391 0 67.754-6.7422 99.16-20.023 30.348-12.832 57.59-31.199 80.98-54.598 23.406-23.395 41.77-50.641 54.602-80.977 13.293-31.418 20.02-64.781 20.02-99.172v-0.11328-0.125c0.027343-0.64844 0.019531-1.3086 0.015625-1.9883zm-166.99-137.34 0.67188 0.35547c2.418 1.2617 4.9922 3.6797 4.9922 6.6953 0 3.2305-3.0703 6.125-3.6836 6.6719-0.99609 0.88281-2.0352 1.9883-2.8242 2.9531 2.3047 0.73828 4.2969 1.8516 5.1523 3.9961 1.0742 2.6641-0.37891 4.8203-0.91406 5.6367-1.1211 1.668-3.2461 3.8711-4.9297 5.1445-0.75 0.55469-1.4258 1.043-2.0352 1.4805-0.007812 0.070312-0.011719 0.125-0.023438 0.1875-0.26953 2.0625-2.0977 4.1094-5.0039 3.8203-0.13672-0.019531-0.34375-0.042968-0.62891-0.070312-0.55859-0.066406-1.4492-0.16016-2.8125-0.31641-7.293-0.80859-8.3711-0.59375-9.5156-0.37109-0.058594 0.007812-1.4141 0.26953-2.918 0.42969-1.6797 0.17578-3 0.17188-4.0742-0.042969-0.99609 0.41797-2.9219 1.2148-5.082 1.2148-2.0117 0-4.2305-0.68359-6.0664-3.0078-4.0898-5.1094-1.9258-12.297-1.668-13.105 0.51953-1.5859 1.3984-4.1445 1.9648-5.7109l0.125-0.34766c1.1914-3.3086 4.5977-5.6992 8.0977-5.6992h4.3164c0.066406-0.34375 0.11328-0.82031 0.11328-1.4727 0-3.832 0.49609-6.082 1.7031-7.75 1.8555-2.5625 4.5273-2.5625 5.6641-2.5625h11.785c2.332 0.011719 5.5312 0.79297 7.5938 1.8711zm-105.42 238.01c0.15234 0.55469 0.46484 1.2656 1.0273 1.9883 0.011719 1.043 0.20703 1.9688 0.36719 2.5352 0.011719 0.1875-0.09375 0.55469-0.18359 0.71875l-7.582 7.5742c-1.4844 1.4805-3.3008 4.0039-4.2305 5.8711l-5.8906 11.789c-0.52344 1.0312-5.0469 10.281-5.0469 17.031 0 0.74219-0.058594 1.2617-0.12891 1.5977-2.3047 0.37109-4.8203 1.4492-6.4531 2.8359-0.046875 0.042969-1.0898 0.92969-2.1211 1.9102-1.0508 0.98047-2.3281 2.1797-2.918 3.668-0.03125 0.023437-0.058593 0.054687-0.089843 0.082031-2.2695 2.082-6.4883 5.9609-9.6016 11.234l-5.9531 10.121c-1.168 1.375-2.3477 3.0703-3.0703 4.4141-0.20703 0.39062-1.0273 1.9375-1.9336 4.0859l-0.94141 1.6016 0.36719-0.17578c-1.3984 3.5352-2.7812 8.1406-2.5 11.984 0.11719 1.5859-3.543 4.6914-6.6445 6.207-1.6562 0.79688-4.9766 3.5664-7.457 5.7461l-0.21875 0.19922c-0.34375 0.33203-1.4258 0.77734-1.8984 0.78906h-4.5898c-0.58984-2.875-2.8594-5.1562-5.7461-5.7539v-1.457c0-2.9883-1.7344-6.4609-4.1211-8.2539-0.019532-0.011718-1.7734-1.4609-1.7734-3.6953v-15.879c0.3125-0.28906 0.58203-0.55469 0.78906-0.76172l1.7344-1.7266c1.9883-1.9922 3.3711-5.3398 3.3711-8.1602v-5.8945c0-2.0859-0.5-5.1562-1.1562-7.1367l-4.0312-12.098c-0.36719-1.0898-0.70703-3.1992-0.70703-4.3438 0-2.6172-0.28125-4.5508-6.3555-16.711-0.47266-0.9375-0.86719-1.7461-1.1914-2.4414 1.0625-1.0742 1.6562-2.6172 1.6562-4.4258 0-4.0508-3.2891-7.3398-7.3281-7.3672-0.24609-0.042969-0.70703-0.29297-0.86719-0.47656-0.21875-0.33594-1.7812-2.7305-3.8594-5.1328-2.6719-3.0781-5.168-4.9922-7.5703-5.7695-0.19922-1.0898-0.60156-2.3359-1.2852-3.7734-0.76562-1.6211-1.5977-2.8828-2.5469-3.8203l1.7578-6.0234-6.9844-6.9805c-0.34375-0.34766-0.78516-1.4336-0.79688-1.9102 0-0.74219 0.47656-2.2891 0.89063-2.8984l2.5859-3.8203c0.5-0.73828 1.8555-1.957 2.6602-2.3711l0.67188-0.35547c2.8828-1.5156 4.9688-4.9805 4.9688-8.2344v-5.8984c0-2.8164-1.375-6.1719-3.3672-8.1641l-7.6289-7.6172c-0.94141-0.94922-2.4219-2.7539-3.1641-3.8672l-8.5195-12.773c-1.7031-2.5625-5.1758-4.4258-8.2539-4.4258-0.47656-0.007813-1.5664-0.46094-1.9023-0.78906l-7.6289-7.6211c-1.9883-1.9883-5.3359-3.3711-8.1523-3.3711h-5.8047c-0.12891-0.042969-0.34375-0.17188-0.4375-0.27734l-3.2188-6.4297c-0.92969-1.8672-2.7539-4.3906-4.2305-5.8789-0.53125-0.51953-5.3242-5.0977-12.84-5.0977-0.77734 0-1.3086-0.070313-1.6445-0.14062-0.62891-2.8164-2.8828-5.0273-5.7188-5.6055l0.003906-16.363c0-2.5273-1.0742-5.8516-2.5469-7.918-0.72656-1.0391-2.9492-4.6406-3.4062-7.5234-0.625-3.8906-0.26953-7.6875-0.26953-7.7109 0.21094-2.0156-0.4375-4.0156-1.7695-5.4805-1.0078-1.1094-2.3398-1.8633-3.8086-2.168v-4.5703c0-2.8711-1.4688-6.25-3.5859-8.1992l-2.2109-2.0469c7.875-21.199 18.582-41.027 31.672-59.023h10.965c6.9102 0 9.5156-3.4609 10.156-6.0586 2.5938-0.63672 6.0586-3.2422 6.0586-10.152 0-0.65625 0.042969-1.1328 0.10547-1.4727h4.3164c2.8125 0 6.1641-1.3906 8.1523-3.3789l19.41-19.41c0.34766-0.33203 1.4258-0.77734 1.9102-0.78906h5.8945c2.3867 0 6.7891-1.9023 7.3086-8.9062 0.92578-0.09375 2.0039-0.34766 3.0586-1.0508 0.89062-0.59375 1.8984-1.6094 2.457-3.3125 0.61328 0.16406 1.2539 0.24609 1.9023 0.24609 1.9141 0 3.7188-0.72656 5.0977-2.0469 0.32422-0.24219 3.6836-2.625 12.586-2.625 1.2148 0 2.168 0.042969 2.918 0.11328-0.078126 0.82422 0.042968 1.6523 0.37109 2.4453 0.85938 2.0859 2.9414 3.3359 5.5547 3.3359h4.5391c0.37109 2.4414 1.6094 5.0352 3.2617 6.6836l1.7266 1.7227c1.1719 1.1797 3.1289 3.0703 4.3555 4.207 0.46484 0.42969 4.0664 3.6484 9.2891 4.7266-0.59375 1.3516-0.97266 2.8242-1.0508 4.1797-1.5977 0.95312-2.8711 2.5508-3.6719 4.0781l-0.32422 0.61328c-0.11719 0.11719-0.37109 0.27734-0.52344 0.31641h-10.363c-0.37109-2.4414-1.6094-5.0352-3.2539-6.6836l-1.7344-1.7266c-0.32422-0.34766-0.78516-1.4258-0.78516-1.9102 0-2.5977-1.2539-4.6797-3.3438-5.543-2.0938-0.87109-4.4453-0.28906-6.2852 1.5625l-1.7344 1.7266c-0.37891 0.38281-0.8125 0.68359-1.0859 0.83594-2.4062 0.29297-5.0234 1.9336-5.5547 2.293l-4.0625 2.6641c-1.2305 0.80859-3.3906 2.0742-4.6992 2.7539l-0.66797 0.35547c-2.1328 1.1094-4.3906 3.125-4.8945 5.6523-0.16016 0.18359-0.39063 0.42578-0.67188 0.63672l-7.043 5.1758c-0.54688 0.40625-2.0156 0.88281-2.6953 0.88281-4.207 0-7.375 2.5742-7.375 5.9883v16.293c0 3.6016 2.5938 6.6094 6.0195 7.2461 0.625 3.418 3.6367 6.0195 7.2461 6.0195h11.789c2.8164 0 6.1719-1.3867 8.1602-3.3789l1.7344-1.7266c1.3516-1.3555 3.0586-3.5898 4.0742-5.3359 0.22266-0.21875 0.99609-0.91406 2.8008-1.8438 2.6484-1.3633 4.2148-3.1836 4.6641-5.3984h13.941c0.47266 0.007812 1.5664 0.46094 1.9023 0.78906l7.6211 7.6211c0.33594 0.34766 0.77734 1.4258 0.78906 1.8984 0 2.8242 1.3867 6.1758 3.3789 8.1641l1.7266 1.7266c1.4805 1.4727 4.0078 3.2969 5.8711 4.2305l6.5156 3.2617c0.125 0.058594 0.23047 0.12891 0.32422 0.19531 0.48438 2.4453 2.0742 4.8516 2.2812 5.1641l2.5859 3.8242c0.27734 0.41406 0.61719 0.96094 0.96484 1.5508-2.4648 0.35938-5.082 1.5977-6.7539 3.2656l-1.7266 1.7266c-0.35547 0.33594-1.4336 0.78906-1.9023 0.79688-0.47656-0.007813-1.5664-0.46094-1.9023-0.78906l-1.7344-1.7344c-2.6602-2.6523-7.0039-3.0703-10.121-0.98047-0.042969 0.03125-4.1836 2.7695-7.8633 3.6094-3.9844 0.90625-5.4102 3.0703-5.9258 4.7383-0.60156 1.9922-0.058594 3.8789 0.84375 5.2812l-6.7617 6.7617c-0.33594 0.32422-1.375 0.77344-1.832 0.78906h-7.2344l-0.20703 16.145c-0.035156 2.3398-0.3125 3.3789-0.44922 3.7617-0.078125 0.03125-0.15234 0.054687-0.21094 0.078125-2.4336 0.89062-5.2422 2.5977-5.2422 8.0156 0 0.73828-0.042969 1.3086-0.10156 1.7383-1.4961-0.16016-3.1172-0.26562-4.3203-0.26562-2.3125 0-5.4883 0.75-7.5625 1.7812l-6.5078 3.2617c-2.9414 1.4805-5.0742 4.9336-5.0742 8.2305v4.4375l-3.918 5.3477-0.17188 0.34375c-0.39062 0.80078-1.2305 2.0156-1.9688 2.8984l-6.2773 2.2148-0.21875 0.10547c-0.3125 0.125-1.0625 0.125-1.3633 0l-6.4961-3.2461c-1.0312-0.50781-2.7656-1.7617-3.5664-2.5742l-1.7344-1.7266c-1.9883-1.9883-5.3398-3.3711-8.1523-3.3711-2.8164 0-6.1719 1.3867-8.1641 3.3711l-7.6172 7.6211c-0.57031 0.57031-3.3828 3.543-3.3828 6.6094 0 3.4141 3.4062 6.1758 4.0781 6.6953l7.1094 5.4297c1.1211 0.85547 2.9766 2.4805 3.9844 3.4844l1.7227 1.7266c0.94922 0.94141 2.4453 2.7656 3.1992 3.8672l0.67969 1.0195c1.3516 1.9922 2.5859 3.4766 10.781 8.5703 1.5078 0.9375 2.418 1.5039 3.0195 1.8555 0.40625 0.24609 0.70703 0.40234 0.96094 0.52344 1.9492 0.91797 3.7266 0.39453 4.8203-0.46094 0.48438 0.125 0.84766 0.23438 1.1211 0.34375 0.45312 2.2695 1.6406 4.6055 3.1602 6.1289l1.7266 1.7227c1.7109 1.7109 4.6406 3.3359 7.0078 3.8945 0.27734 0.089844 2.7461 0.9375 7.2812 4.4492 4.3672 3.3945 7.4727 5.0742 10.379 3.6562 1.1445-0.56641 2.0039-1.5625 2.3945-2.7227h13.512c4.1094 0 10.641 1.5742 13.27 2.3008v0.64062c0 3.4141 3.0898 5.8945 7.3672 5.8945 0.94141 0 2.7578 0.42969 3.6016 0.85938l12.41 6.2031c2.0742 1.0391 5.2461 1.793 7.5508 1.793 0.47656 0.007812 1.5742 0.45312 1.9023 0.78906l1.7344 1.7227c0.8125 0.8125 2.0625 2.5508 2.582 3.5703l3.2539 6.5156c1.043 2.0859 3.1758 4.5938 5.0586 5.9727 0.42578 0.3125 4.3516 3.0703 10.828 4.8438 2.2695 0.61719 2.6406 0.91406 2.6406 7.5234 0 4.1562 2.457 7.4375 6.7539 9.1055-1.3594 1.4219-3.9688 4.5547-2.875 8.2344zm-63.215-95.336c2.1055 2.1094 4.3164 5.3594 2.8633 8.8672-1.7617 4.2578-7.2812 4.582-8.9414 4.582h-11.789c-3.4023 0-6.2734-2.3164-7.1133-5.457-0.4375-0.14062-1.1562-0.33594-2.2695-0.47266-8.1875-1.0156-9.5625-5-9.7422-6.8203l-5.6172-1.4023c-3.0781-0.77344-6.2031-3.0703-6.2031-6.4766v-4.4219c0-4.0625 3.3086-7.3672 7.3672-7.3672h11.797c2.8047 0 6.1602 1.3867 8.1523 3.3789l1.7266 1.7266c0.67969 0.67188 2.293 1.6914 3.1992 2.0117 0 0 2.5234 0.84766 8.2539 1.7852 1.8438 0.30078 3.9102 0.82031 5.3281 2.3867 1.6016 1.7695 1.5273 3.8086 1.4844 4.793-0.027344 0.76953-0.046876 1.3438 1.5039 2.8867zm93.254-191.69c-4.7266 0-6.5859 2.082-7.2969 3.8203-0.32422 0.77344-0.44922 1.5508-0.42578 2.3047-2.3984 0.54688-4.8164 2-6.2305 3.8477-0.13672 0.16406-1.5547 1.8164-3.7383 1.8164-6.4258 0-9.0352 4.0742-9.5664 6.4766-0.42969 1.9141-0.75 4.8281-0.75 6.7852 0 0.69141-0.47656 2.1641-0.88281 2.7227-0.16016 0.21875-3.0703 4.2969-4.3867 11.195-1.3203-1.7109-3.5703-3.3203-7.0508-3.5664-0.3125-0.83203-0.62891-2.2695-0.85547-3.2109-0.5-2.2344-1.0195-4.5391-2.1992-6.4883-1.4922-2.4336-3.2422-3.9023-5.2656-4.375v-13.57c0.1875-0.51172 1.0742-2.5742 4.5977-6.1055 3.8242-3.8125 3.668-6.9258 2.8594-8.8672-1.7266-4.1719-7.0977-4.5625-8.8359-4.5742-0.14844-0.046875-0.37891-0.18359-0.48438-0.29297-1.7617-3.4414-3.7148-7.3203-4.2305-8.4297-0.42969-1.332-1.4609-2.1914-2.3867-2.9844-0.66016-0.56641-1.7578-1.4258-3.125-2.3242-3.6328-2.3594-7.1328-3.5898-10.41-3.6602-0.70313-0.019531-1.2031-0.078125-1.5664-0.14062-0.011719-1.4609-0.03125-3.1406-0.066406-4.3203v-0.058593c-0.042969-1.5781-0.054687-4.1562-0.042969-5.7578l0.082032-10.25c19.156-4.8086 39.211-7.3672 59.855-7.3672 16.848 0 33.316 1.7031 49.223 4.9531v0.85547c0 0.9375-0.42578 2.7578-0.84766 3.6016-0.51172 1.0312-5.0352 10.281-5.0352 17.023 0 3.6719-0.41797 4.4453-0.42969 4.4727-0.042968 0.058593-0.23047 0.24219-0.37109 0.37891l-1.7227 1.7266c-1.6758 1.6758-2.9219 4.3164-3.2852 6.7852-2.4688 0.35547-5.1094 1.5977-6.7852 3.2773l-11.762 11.766c-0.14844 0.15625-2.8008 2.5352-6.582 2.5352zm20.98 32.691c-0.10156-0.10547-0.30469-0.23047-0.44141-0.27734-4.0195-0.042969-7.2812-3.3242-7.2812-7.3633v-8.8438c0-3.7969 2.0039-5.4297 3.1953-6.0586 2.4688-1.3281 5.3047-0.47656 7.1484 0.75 0.61328 0.41797 2.1758 0.89062 2.9219 0.89062h17.68c2.793 0 6.1484 1.3555 8.1484 3.3086l1.6641 1.6133c1.207 1.168 2.1641 2.0859 8.1055 8.207 1.0625 1.0977 1.7812 1.9766 2.2695 2.7656 1.8555 2.9883 0.48828 5.2695 0.03125 5.8906-2.3984 3.2422-6.4844 1.5898-8.0156 0.96484-1.3984-0.56641-2.6992-1.2266-2.7461-1.2539-0.8125-0.41406-2.6289-0.85938-3.5469-0.85938-0.47656 0.011719-1.5625 0.46094-1.9102 0.78906l-1.7227 1.7266c-0.33594 0.34375-0.77734 1.4258-0.79688 1.9023 0 2.8164-1.3789 6.1719-3.3711 8.1602l-1.7344 1.7266c-1.3789 1.3867-3.2344 2.1523-5.2109 2.1523-1.9688 0-3.8125-0.76562-5.2109-2.1523l-1.7227-1.7266c-1.4805-1.4805-3.3008-4.0039-4.2305-5.8711zm208.06 138.34c-4.4453 0.85938-6.5664 3.2734-7.5586 5.1406-1.207 2.2695-1.2891 4.6758-1.043 6.5625h-0.87109v10.316c0 3.6719-0.41406 4.4453-0.41797 4.4805-0.046875 0.058593-0.22266 0.24219-0.37109 0.37891l-1.7227 1.7227c-0.34766 0.33203-1.4336 0.78516-1.9102 0.78906h-5.8945c-0.47266-0.007813-1.5625-0.46094-1.9023-0.78906l-1.7227-1.7227c-0.33594-0.34766-0.78516-1.4336-0.78906-1.9023 0-2.7227-1.2656-6.0547-3.0703-8.0859-0.17188-0.19531-4.1914-4.7031-10.227-9.9805l-5.1445-4.4922c-0.48828-0.87109-1.2891-1.957-2.6172-3.2891l-1.7344-1.7266c-2.8359-2.8398-5.4922-2.1758-6.4961-1.7578-1.4844 0.61328-2.5352 1.8555-2.9375 3.4258-1.168 0.37109-2.918 1.3867-4.1953 4.2461-1.2656 2.8398-1.8867 7.0312-1.8867 12.816v17.691c0 2.5938 0 5.0391 1.957 7.0977 1.6641 1.7461 3.8828 2.3164 7.3789 3.1055 5.5039 1.2383 14.23 4.6055 14.324 4.6406 1.5781 0.61328 3.8555 1.1094 5.8047 1.2852v28.078c-0.007813 0.47656-0.46094 1.5664-0.78516 1.9102l-7.6289 7.6172c-1.9883 1.9922-3.3711 5.3477-3.3711 8.1641 0 1.0312-0.39453 2.9883-0.80078 3.9492-1.1953 2.8359-5.0938 12.434-5.0938 16.676 0 0.21094 0 0.55469-0.40234 0.77344-2.5391 1.0039-5.1406 3.3594-6.3438 5.7812l-3.2656 6.5156c-1.0312 2.0742-1.7812 5.2539-1.7812 7.5586 0 0.042969-0.089844 3.6016-3.0312 4.7031-5.5664 2.0859-8.7656 7.8945-8.7656 15.926v2.9492c0 0.94922-0.42578 2.7656-0.85547 3.6094l-3.2539 6.5156c-0.30078 0.59375-1.3867 1.6797-1.9805 1.9766-0.95312 0.47656-8.2891 4.293-11.684 10.117-0.48438-0.078125-0.94922-0.10547-1.3789-0.10547-4.4844 0-9.2383 3.4375-10.164 12.809-1.4961-0.64062-3.1055-1.0273-4.5742-1.0273h-4.3086c-0.058594-0.34375-0.11328-0.82031-0.11328-1.4688v-47.164c0-6.7422-4.5312-15.992-5.0391-17.023l-5.9023-11.789c-0.51953-1.043-1.1719-3.1055-1.3555-4.2578l-1.75-11.152c0.26562-0.26953 0.5-0.56641 0.69141-0.89062 1.1094-1.8281 1.0078-4.2031-0.28125-6.7031l-6.4648-12.449c-0.70312-1.3516-1.8203-3.668-2.4297-5.0625l-0.23047-0.50781c-1.3555-3.0781-4.8047-5.3242-8.1758-5.3242-1.1484 0-3.2656-0.34375-4.3516-0.70312l-12.098-4.0312c-1.7344-0.57812-4.457-1.1602-6.3086-1.1602h-9.6797c-0.22266 0-0.56641 0-0.77734-0.38281-0.80859-2.1055-2.5156-4.7383-4.1016-6.3008l-7.5938-7.5c-2-1.9766-5.3477-3.3477-8.1602-3.3477h-4.168c-0.035156-0.77734-0.13672-1.6328-0.35938-2.582-0.51953-2.3359-0.22266-5.0117 0.09375-7.8359 0.36719-3.2852 0.74219-6.668-0.125-10.004-0.23438-0.90234 1.125-3.3203 2.1211-5.0703 1.7461-3.0938 3.9141-6.9453 3.9141-11.488v-7.2617c0.33594-0.054688 0.82031-0.10547 1.4688-0.10547 8.3867 0 13.84-10.414 14.43-11.602 0.50781-1.0273 1.7617-2.7578 2.5742-3.5664l1.7266-1.7266c1.0195-1.0312 2.8594-2.6523 4.0039-3.543l2.8945-2.2734c2.375-1.8438 4.0312-5.2422 4.0312-8.2344 0-2.0273-0.41406-5.0352-0.96094-6.9805l-0.066406-0.22266c-0.64062-2.2891-2.3242-5.168-4.0078-6.8555l-1.7266-1.7227c-0.33203-0.34375-0.78516-1.4336-0.79688-1.9023l0.015625-4.5586c2.4453-0.37109 5.0391-1.6094 6.6914-3.2617l1.7227-1.7266c1.2969-1.2969 3.0898-3.4531 4.1719-5.0039 0.17578-0.1875 1.0195-1.043 3.1016-2.3984 2.3164-1.5078 3.082-2.4297 4.0039-3.6484 0.44922-0.61328 0.98047-1.3086 2.4805-2.7109 3.5859-3.3203 4.0859-3.7969 4.2812-4.0039h0.007813c0.99609-1.1367 2.7422-3.0195 3.8086-4.0859l7.6289-7.6211c1.5664-1.5664 3.2734-4.1719 4.0781-6.2656 0.23438-0.41797 0.56641-0.41797 0.76563-0.41797 5.293 0 8.1406-3.7656 8.9766-5.9844 0.16016-0.37109 0.87109-1.0898 1.2383-1.2422 1.8398-0.69141 4.7031-2.7422 5.6758-6.3945 1.0547 0.125 2.4219 0.40234 3.5586 0.75 4.1602 1.3047 7.1211-0.070312 13.145-6.1055 1.2656-1.2656 1.957-1.6328 2.1445-1.7148h0.011719c3.6016-0.10547 4.5859-2.8594 4.8047-3.7031 0.14844-0.57812 0.19922-1.125 0.20703-1.9375 1.0898 0.11328 2.1289-0.089844 3.0781-0.58203 1.7852-0.92578 2.8359-2.7422 2.8359-4.8438l-0.003907-5.0859c0-4.0625-3.3086-7.3672-7.375-7.3672h-11.789c-2.8164 0-6.1602 1.3867-8.1523 3.3711l-9.707 9.707c-0.24219 0.24609-0.47656 0.47266-0.69531 0.67969-1.3164-1.2266-3.082-1.9766-5.0156-1.9766h-2.9648c0.18359-0.26562 0.34766-0.54687 0.49609-0.85547 1.4727-3.0781-0.16016-6.0195-1.25-7.957-0.042969-0.070312-0.089844-0.14844-0.125-0.23047 2.6875-0.84375 4.7617-3.1875 5.2227-6.0078 2.1641-0.84766 4.4258-3.7031 10.238-11.59 0.94922-1.3086 2.1328-2.918 2.4922-3.332l7.5586-7.5625c1.2305-1.2305 3.0352-3.2227 4.1562-4.6055 0.21875-0.20703 1.6094-1.4023 4.8789-2.2031 2.8945-0.71484 5.5703-2.7578 8.3242-5.4102 51.168 41.453 85.426 102.99 90.66 172.5-0.28516 0.13672-1.625 0.70313-3.793 1.1289zm-117.04-113.53c1.0625-0.8125 2.0977-1.7852 3.1133-2.8008l9.7031-9.7031c0.34766-0.33203 1.4336-0.78516 1.9023-0.78906h7.6914c-2.0273 1.2266-3.1133 3.4648-3.2461 6.6719-1.3164 0.61328-2.8242 1.6758-4.6172 3.4648-2.6133 2.6055-3.8945 3.5469-4.4492 3.8711-1.793-0.54688-4.3438-1.1602-6.832-1.1602-1.1367 0.003907-2.2461 0.13281-3.2656 0.44531z"/>
  <!-- <use x="70" y="648.421875" xlink:href="#v"/>
  <use x="91.628906" y="648.421875" xlink:href="#b"/>
  <use x="106.164062" y="648.421875" xlink:href="#a"/>
  <use x="126.15625" y="648.421875" xlink:href="#g"/>
  <use x="146.042969" y="648.421875" xlink:href="#c"/>
  <use x="160.132812" y="648.421875" xlink:href="#a"/>
  <use x="180.125" y="648.421875" xlink:href="#f"/>
  <use x="211.480469" y="648.421875" xlink:href="#l"/>
  <use x="232.582031" y="648.421875" xlink:href="#k"/>
  <use x="262.054688" y="648.421875" xlink:href="#j"/>
  <use x="286.246094" y="648.421875" xlink:href="#e"/>
  <use x="307.230469" y="648.421875" xlink:href="#u"/>
  <use x="317.332031" y="648.421875" xlink:href="#t"/>
  <use x="327.433594" y="648.421875" xlink:href="#i"/>
  <use x="348.417969" y="648.421875" xlink:href="#a"/>
  <use x="368.40625" y="648.421875" xlink:href="#b"/>
  <use x="382.941406" y="648.421875" xlink:href="#h"/>
  <use x="413.652344" y="648.421875" xlink:href="#a"/>
  <use x="443.902344" y="648.421875" xlink:href="#s"/>
  <use x="464.039062" y="648.421875" xlink:href="#e"/>
  <use x="485.019531" y="648.421875" xlink:href="#b"/>
  <use x="499.554688" y="648.421875" xlink:href="#c"/>
  <use x="513.644531" y="648.421875" xlink:href="#g"/>
  <use x="533.535156" y="648.421875" xlink:href="#f"/>
  <use x="554.632812" y="648.421875" xlink:href="#d"/>
  <use x="70" y="677.894531" xlink:href="#r"/>
  <use x="82.824219" y="677.894531" xlink:href="#b"/>
  <use x="97.359375" y="677.894531" xlink:href="#d"/>
  <use x="117.605469" y="677.894531" xlink:href="#h"/>
  <use x="158.578125" y="677.894531" xlink:href="#c"/>
  <use x="172.667969" y="677.894531" xlink:href="#i"/>
  <use x="193.652344" y="677.894531" xlink:href="#a"/>
  <use x="223.902344" y="677.894531" xlink:href="#q"/>
  <use x="248.570312" y="677.894531" xlink:href="#d"/>
  <use x="268.816406" y="677.894531" xlink:href="#e"/>
  <use x="289.800781" y="677.894531" xlink:href="#p"/>
  <use x="321.042969" y="677.894531" xlink:href="#o"/>
  <use x="342.644531" y="677.894531" xlink:href="#b"/>
  <use x="357.179688" y="677.894531" xlink:href="#d"/>
  <use x="377.429688" y="677.894531" xlink:href="#n"/>
  <use x="387.53125" y="677.894531" xlink:href="#a"/>
  <use x="407.523437" y="677.894531" xlink:href="#m"/>
  <use x="424.992188" y="677.894531" xlink:href="#c"/> -->
 </g>
</svg>
