<?xml version="1.0" encoding="UTF-8"?>
<svg width="700pt" height="700pt" version="1.1" viewBox="0 0 700 700" xmlns="http://www.w3.org/2000/svg">
 <g>
  <path d="m319.11 235.48c5.1562 0 9.332-4.1992 9.332-9.332l0.003906-39.902c0-46.199-37.59-83.812-83.812-83.812-46.227 0-83.793 37.613-83.793 83.812v39.875c0 5.1562 4.1992 9.332 9.332 9.332 5.1328 0 9.332-4.1992 9.332-9.332l0.003906-39.875c0-35.91 29.215-65.125 65.125-65.125s65.125 29.215 65.125 65.125v39.875c-0.003906 5.1602 4.1953 9.3594 9.3516 9.3594z"/>
  <path d="m196.26 194.48c-5.1562 0-9.332 4.1992-9.332 9.332 0 5.1328 4.1992 9.332 9.332 9.332h97.348c5.1562 0 9.332-4.1992 9.332-9.332 0-5.1328-4.1992-9.332-9.332-9.332z"/>
  <path d="m596.59 280.61-138.13-36.469-0.09375-4.1523c0.55859-0.55859 1.375-1.0273 2.9648-2.1484 2.0078-1.4219 4.3867-3.1016 7.2109-5.4375 7.0469-5.8555 11.082-15.098 11.082-25.387 0-19.156-15.586-34.742-34.742-34.742s-34.742 15.586-34.742 34.742c0 5.1562 4.1992 9.332 9.332 9.332 5.1328 0 9.332-4.1992 9.332-9.332 0-8.8672 7.2109-16.055 16.055-16.055 8.8672 0 16.055 7.2109 16.055 16.055 0 4.6445-1.6094 8.7734-4.3633 11.059-2.3555 1.9609-4.3398 3.3594-6.3945 4.8281-5.8086 3.9883-9.3789 7.1172-10.312 17.688l0.046874 3.6875-41.184 11.223-3.7578-32.785c0-7.5117-2.918-14.605-8.2617-19.949s-12.414-8.2852-19.949-8.2852h-21.117c-5.1562 0-9.332 4.1992-9.332 9.332 0 5.1328 4.1992 9.332 9.332 9.332h21.117c2.543 0 4.9453 0.98047 6.7422 2.8008 1.7969 1.7969 2.8008 4.1992 2.8477 7.793l4.1523 36.727-73.941 20.16c-20.465 5.7617-32.223 18.785-32.223 35.676 0 19.973 16.262 36.262 36.262 36.262h80.336l8.4922 75.156c0.39844 2.8242-0.46484 5.7617-2.2148 7.793-1.8438 2.1016-4.6445 3.3125-7.6992 3.3125l-289.78 0.007813c-3.0352 0-5.8086-1.1914-7.6289-3.2891-1.8438-2.1016-2.6367-5.0156-2.2148-8.2383l23.168-205.4c-0.023438-2.0508 0.91016-4.1758 2.543-5.832 1.8672-1.8672 4.3398-2.8945 6.9531-2.8945h24.781c5.1562 0 9.332-4.1992 9.332-9.332 0-5.1328-4.1992-9.332-9.332-9.332h-24.781c-7.6055 0-14.793 2.9883-20.16 8.3984-5.2031 5.2031-8.0508 11.992-7.957 17.992l-23.055 204.14c-1.1445 8.3281 1.3086 16.66 6.6484 22.82 5.3672 6.1836 13.301 9.707 21.723 9.707h289.8c8.3984 0 16.332-3.5234 21.77-9.7305 5.3438-6.1602 7.7695-14.398 6.6719-22.375l-8.2383-72.848 182.93 0.023437c19.996 0 36.285-16.262 36.285-36.262 0.003907-16.965-11.73-29.984-32.359-35.773zm-3.9414 53.34-282.05-0.023437c-9.6836 0-17.57-7.8867-17.57-17.57 0-10.289 10.125-15.328 18.527-17.711l137.79-37.566 142.36 37.543c8.4688 2.4023 18.574 7.375 18.551 17.734 0 9.707-7.8867 17.594-17.594 17.594z"/>
 </g>
</svg>
